<svg width="297" height="272" viewBox="0 0 297 272" fill="none" xmlns="http://www.w3.org/2000/svg">
<g id="&#231;&#169;&#186;-&#230;&#156;&#170;&#230;&#159;&#165;&#232;&#175;&#162;&#229;&#136;&#176;&#230;&#149;&#176;&#230;&#141;&#174;">
<rect id="&#231;&#159;&#169;&#229;&#189;&#162;" x="95.6062" y="146.355" width="60.8032" height="9.34636" rx="2.8" fill="white" stroke="#333333" stroke-width="1.4"/>
<path id="&#232;&#183;&#175;&#229;&#190;&#132;" d="M185.642 270.779L183.888 251.502L225.398 242.739L240.014 270.779H185.642Z" fill="white" stroke="#333333" stroke-width="1.4"/>
<path id="&#232;&#183;&#175;&#229;&#190;&#132;_2" d="M107.884 127.663C106.013 119.719 115.289 88.5254 120.162 73.9216L106.714 71.585C111.859 44.0134 142.183 34.7838 149.394 35.3679C165.764 34.9785 183.07 34.9007 191.488 37.7045C202.012 41.2094 215.458 63.407 217.798 69.8327C201.428 70.4168 196.166 78.5948 191.488 85.0205L188.564 68.0802V116.564C162.451 123.574 109.755 135.608 107.884 127.663Z" fill="white"/>
<path id="&#232;&#183;&#175;&#229;&#190;&#132;_3" d="M120.162 73.9216C115.289 88.5254 106.013 119.719 107.884 127.663C109.755 135.608 162.451 123.574 188.564 116.564V68.0802L191.488 85.0205C196.166 78.5949 201.428 70.4168 217.798 69.8327C215.458 63.407 202.012 41.2094 191.488 37.7045C183.07 34.9007 165.764 34.9785 149.394 35.3679C142.183 34.7838 111.859 44.0134 106.714 71.585C119.576 71.585 127.762 72.7534 135.946 78.0107C137.116 71.585 138.87 66.3277 141.794 61.6545" stroke="#333333" stroke-width="1.4"/>
<path id="&#229;&#189;&#162;&#231;&#138;&#182;" fill-rule="evenodd" clip-rule="evenodd" d="M169.502 66.159C174.783 69.2778 182.394 66.1772 186.501 59.2337C190.608 52.2903 189.655 44.1334 184.374 41.0146C179.092 37.896 171.482 40.9965 167.375 47.94C163.267 54.8833 164.22 63.0403 169.502 66.159ZM171.735 62.384C168.039 60.2018 167.372 54.494 170.247 49.6355C173.12 44.777 178.445 42.6075 182.141 44.7897C185.837 46.9719 186.503 52.6797 183.63 57.5382C180.755 62.3967 175.43 64.5662 171.735 62.384Z" fill="#266EFF"/>
<path id="&#231;&#159;&#169;&#229;&#189;&#162;_2" d="M158.748 77.8267L168.931 62.2488L172.847 64.8044L162.664 80.3822L158.748 77.8267Z" fill="#266EFF"/>
<path id="&#232;&#183;&#175;&#229;&#190;&#132;_4" d="M160.382 65.8933C158.085 65.4539 153.731 70.5686 151.843 73.1809L158.049 74.963C159.783 72.1229 162.679 66.3327 160.382 65.8933Z" fill="white" stroke="#333333" stroke-width="1.4"/>
<path id="&#232;&#183;&#175;&#229;&#190;&#132;_5" d="M120.354 103.536C96.9679 107.274 101.645 83.6749 106.907 71.4078C119.536 67.202 132.049 73.9215 135.946 77.4263C135.946 77.4263 163.033 68.4871 167.71 67.3187C172.388 66.1505 175.895 67.3187 174.142 73.1603C172.388 79.0017 169.464 81.9224 169.464 81.9224C165.372 85.4274 165.114 82.271 161.864 84.259C152.211 90.1636 137.849 100.739 120.354 103.536Z" fill="white" stroke="#333333" stroke-width="1.4"/>
<path id="&#232;&#183;&#175;&#229;&#190;&#132;_6" d="M160.502 26.0215C158.164 29.1369 153.37 35.4846 152.902 35.952C158.982 42.9618 166.348 41.9881 169.272 40.6252L171.026 28.9422L160.502 26.0215Z" fill="white" stroke="#333333" stroke-width="1.4"/>
<path id="&#232;&#183;&#175;&#229;&#190;&#132;_7" d="M124.838 149.277C111.742 144.136 108.078 132.726 107.884 127.663C117.043 122.016 144.482 111.307 180.964 113.644C226.566 116.564 239.428 115.396 241.768 131.752C243.638 144.837 222.512 181.6 211.715 198.345L228.906 245.661C203.18 248.582 181.548 256.37 175.118 262.601L154.07 169.722C149.783 165.049 137.934 154.417 124.838 149.277Z" fill="white"/>
<path id="&#229;&#189;&#162;&#231;&#138;&#182;_2" d="M197.92 160.376L198.578 160.137L198.568 160.111L198.557 160.086L197.92 160.376ZM211.715 198.345L211.126 197.966L210.938 198.258L211.057 198.584L211.715 198.345ZM228.906 245.661L228.985 246.356L229.867 246.256L229.564 245.422L228.906 245.661ZM175.118 262.601L174.435 262.755L174.71 263.97L175.605 263.103L175.118 262.601ZM154.07 169.722L154.753 169.567L154.712 169.386L154.586 169.248L154.07 169.722ZM124.838 149.277L124.582 149.929L124.582 149.929L124.838 149.277ZM107.884 127.663L107.516 127.067L107.168 127.282L107.184 127.69L107.884 127.663ZM180.964 113.644L180.919 114.342L180.964 113.644ZM241.768 131.752L242.461 131.653L242.461 131.653L241.768 131.752ZM165.993 128.266C184.097 138.934 194.411 154.355 197.283 160.665L198.557 160.086C195.58 153.544 185.083 137.89 166.703 127.06L165.993 128.266ZM197.262 160.615L211.057 198.584L212.373 198.106L198.578 160.137L197.262 160.615ZM211.057 198.584L228.248 245.9L229.564 245.422L212.373 198.106L211.057 198.584ZM228.827 244.965C215.919 246.431 204.033 249.118 194.558 252.225C185.119 255.319 177.969 258.864 174.631 262.098L175.605 263.103C178.697 260.107 185.578 256.642 194.994 253.555C204.374 250.48 216.167 247.812 228.985 246.356L228.827 244.965ZM175.801 262.446L154.753 169.567L153.387 169.876L174.435 262.755L175.801 262.446ZM154.586 169.248C150.26 164.534 138.326 153.819 125.094 148.625L124.582 149.929C137.542 155.015 149.306 165.565 153.554 170.195L154.586 169.248ZM125.094 148.625C112.316 143.609 108.77 132.491 108.583 127.636L107.184 127.69C107.387 132.962 111.169 144.663 124.582 149.929L125.094 148.625ZM108.251 128.259C117.284 122.69 144.579 112.015 180.919 114.342L181.009 112.945C144.385 110.599 116.802 121.343 107.516 127.067L108.251 128.259ZM180.919 114.342C192.335 115.073 201.67 115.547 209.323 116.103C216.976 116.66 222.885 117.296 227.432 118.342C231.979 119.388 235.085 120.826 237.199 122.93C239.302 125.022 240.503 127.852 241.075 131.851L242.461 131.653C241.863 127.474 240.578 124.317 238.187 121.937C235.806 119.568 232.407 118.049 227.746 116.978C223.085 115.906 217.082 115.264 209.425 114.707C201.768 114.15 192.394 113.674 181.009 112.945L180.919 114.342ZM241.075 131.851C241.517 134.945 240.6 139.558 238.717 145.097C236.844 150.605 234.056 156.92 230.864 163.365C224.481 176.255 216.515 189.609 211.126 197.966L212.303 198.725C217.712 190.336 225.707 176.936 232.119 163.987C235.324 157.513 238.142 151.137 240.042 145.548C241.932 139.991 242.954 135.102 242.461 131.653L241.075 131.851Z" fill="#333333"/>
<path id="&#232;&#183;&#175;&#229;&#190;&#132;_8" d="M192.658 152.196L200.842 142.267" stroke="#333333" stroke-width="1.4"/>
<path id="&#232;&#183;&#175;&#229;&#190;&#132;_9" d="M177.834 21.975C177.249 27.5774 173.108 39.8235 164.014 37.9769C155.014 35.2341 152.462 24.6191 153.477 19.8817L160.395 12.1558L177.834 21.975Z" fill="white" stroke="#333333" stroke-width="1.26"/>
<path id="&#232;&#183;&#175;&#229;&#190;&#132;_10" d="M156.803 19.611C155.505 19.2958 154.359 23.5176 154.143 25.5275C152.678 22.8821 150.257 16.52 150.733 13.3581C151.211 10.1963 153.382 9.44828 154.408 9.46942C153.545 8.52053 152.5 5.93385 155.218 3.17878C157.934 0.423724 160.452 2.11578 161.371 3.3062C161.534 2.37849 167.141 -0.0103246 171.124 3.3579e-05C177.395 0.0163547 189.269 8.68892 188.145 16.3619C188.025 18.5521 183.309 31.6636 174.116 25.4131C164.925 19.1625 162.147 21.095 160.187 21.7188C159.381 21.9753 159.069 24.0155 158.571 25.1465C158.528 23.884 158.104 19.9262 156.803 19.611Z" fill="#333333"/>
<path id="&#232;&#183;&#175;&#229;&#190;&#132;_11" d="M209.242 105.465H177.329C176.302 105.465 175.624 104.396 176.062 103.468L189.123 75.8424C192.186 69.3676 197.16 63.9869 203.379 60.4268L205.465 59.2325C207.373 58.1402 209.535 57.5654 211.734 57.5654H244.385C245.84 57.5654 246.329 59.5097 245.047 60.1982L240.354 62.7169C233.976 66.1403 228.816 71.4547 225.586 77.9287L213.002 103.14C212.292 104.565 210.835 105.465 209.242 105.465Z" fill="white" stroke="#333333" stroke-width="1.4"/>
<path id="&#232;&#183;&#175;&#229;&#190;&#132;_12" d="M118.992 155.702L99.114 271.363" stroke="#333333" stroke-width="1.4"/>
<path id="&#232;&#183;&#175;&#229;&#190;&#132;_13" d="M110.222 205.355H161.672" stroke="#333333" stroke-width="1.4"/>
<rect id="&#231;&#159;&#169;&#229;&#189;&#162;_3" x="196.166" y="77.4263" width="26.8936" height="3.50489" fill="#266EFF"/>
<rect id="&#231;&#159;&#169;&#229;&#189;&#162;_4" x="191.488" y="84.436" width="26.8936" height="3.50489" fill="#266EFF"/>
<rect id="&#231;&#159;&#169;&#229;&#189;&#162;_5" x="186.81" y="91.4458" width="26.8936" height="3.50489" fill="#266EFF"/>
<path id="&#232;&#183;&#175;&#229;&#190;&#132;_14" d="M224.322 77.6303L217.243 76.9566C216.502 76.886 215.779 77.2193 215.352 77.8293C213.116 81.0209 211.663 84.6936 211.112 88.5502L211.079 88.7827C210.913 89.9387 211.702 91.0153 212.855 91.2073L219.229 92.2687C220.459 92.4735 221.676 91.8418 222.216 90.7188L226.583 81.6285C227.426 79.8731 226.262 77.8149 224.322 77.6303Z" fill="white" stroke="#333333" stroke-width="1.4"/>
<rect id="&#231;&#159;&#169;&#229;&#189;&#162;_6" y="106.634" width="297" height="11.6829" fill="#EBF2FF"/>
<path id="&#232;&#183;&#175;&#229;&#190;&#132;_15" d="M169.856 28.3579C171.221 30.6945 172.78 35.0172 168.102 33.6152L169.856 28.3579Z" fill="white"/>
<path id="&#232;&#183;&#175;&#229;&#190;&#132;_16" d="M169.856 28.3579C171.221 30.6945 172.78 35.0172 168.102 33.6152" stroke="#333333" stroke-width="1.4"/>
<ellipse id="&#230;&#164;&#173;&#229;&#156;&#134;&#229;&#189;&#162;" cx="167.372" cy="26.8603" rx="1.16922" ry="1.75256" transform="rotate(16.0263 167.372 26.8603)" fill="#333333"/>
<ellipse id="&#230;&#164;&#173;&#229;&#156;&#134;&#229;&#189;&#162;_2" cx="174.387" cy="28.0282" rx="1.16922" ry="1.75256" transform="rotate(16.0263 174.387 28.0282)" fill="#333333"/>
</g>
</svg>
