<svg width="347" height="327" viewBox="0 0 347 327" fill="none" xmlns="http://www.w3.org/2000/svg">
<g id="&#231;&#169;&#186;-&#230;&#156;&#170;&#229;&#188;&#128;&#233;&#128;&#154;&#230;&#157;&#131;&#231;&#155;&#138;">
<rect id="Rectangle 167" width="69.2137" height="33.8047" rx="16.9023" transform="matrix(-0.965926 -0.258819 -0.258819 0.965926 333.413 138.107)" fill="#266EFF"/>
<circle id="Ellipse 53" cx="8.63897" cy="8.63897" r="8.63897" transform="matrix(-1 0 0 1 124.575 17.2773)" fill="#266EFF"/>
<path id="Vector 71" d="M208.336 112.305L198.946 96.5298L171.151 120.944C175.408 130.084 187.227 149.115 200.448 152.12C213.669 155.125 233.752 148.614 242.14 144.983C242.766 146.235 245.821 148.664 253.033 148.364C268.286 147.532 267.862 140.557 263.572 137.125C265.527 138.356 268.958 140.15 273.316 141.603C280.077 143.856 282.706 138.973 282.706 137.847C282.706 136.72 278.896 136.082 276.696 135.593C273.316 134.842 265.821 130.64 262.048 127.705C258.667 125.076 252.908 124.2 250.028 123.949C239.01 123.073 216.449 121.019 214.346 119.817C212.242 118.615 209.463 114.309 208.336 112.305Z" fill="white" stroke="#333333" stroke-width="0.9"/>
<path id="Vector 69" d="M203.829 98.0334L191.809 78.8774L159.883 113.809L168.897 126.204L203.829 98.0334Z" fill="white" stroke="#333333" stroke-width="0.9"/>
<path id="Vector 70" d="M201.95 76.6235L188.052 86.3892L187.677 66.1064H199.696L201.95 76.6235Z" fill="white" stroke="#333333" stroke-width="0.9"/>
<g id="Vector 72">
<path d="M201.199 72.4941C200.573 75.6241 201.274 81.8842 209.087 81.8842C216.867 81.8842 220.077 74.1863 220.722 70.2892C221.364 67.9243 211.73 63.7624 206.833 61.9771C199.349 63.0759 198.173 65.4116 201.199 72.4941Z" fill="white"/>
<path d="M220.73 70.2404C220.728 70.2566 220.725 70.2729 220.722 70.2892M220.722 70.2892C220.077 74.1863 216.867 81.8842 209.087 81.8842C201.274 81.8842 200.573 75.6241 201.199 72.4941C198.173 65.4116 199.349 63.0759 206.833 61.9771C211.73 63.7624 221.364 67.9243 220.722 70.2892Z" stroke="#333333" stroke-width="0.9"/>
</g>
<path id="Vector 68" d="M99.4087 61.9771L99.7843 66.4843C104.417 90.398 119.241 136.723 141.477 130.713C163.713 124.703 182.543 101.165 189.179 90.1476L190.306 64.2307L99.4087 61.9771Z" fill="white" stroke="#333333" stroke-width="0.9"/>
<path id="Vector 65" d="M53.9607 273.442L60.3461 257.666L106.17 259.92L93.3995 300.861L94.1507 325.275L53.9607 273.442Z" fill="white" stroke="#333333" stroke-width="0.9"/>
<path id="Vector 63" d="M182.042 226.867C198.484 205.343 158.504 152.872 141.101 130.336L91.521 111.556L76.8723 128.834L139.223 199.448L67.1065 153.248L43.4433 201.701C87.3893 214.472 161.384 253.911 182.042 226.867Z" fill="white" stroke="#333333" stroke-width="0.9"/>
<g id="Vector 64">
<path d="M35.9315 137.847L65.2289 157.003L46.4485 195.315L25.4145 188.929L1.00006 194.564L35.9315 137.847Z" fill="white"/>
<path d="M110.302 260.295C133.439 214.621 131.962 156.377 128.331 132.964L100.35 64.6899C60.7248 74.9179 71.9761 131.213 73.1167 151.744C74.9947 185.549 62.8501 229.119 55.4632 257.666C66.1054 258.542 91.9722 260.295 110.302 260.295Z" fill="white"/>
<path d="M35.9315 137.847L65.2289 157.003L46.4485 195.315L25.4145 188.929L1.00006 194.564L35.9315 137.847Z" stroke="#333333" stroke-width="0.9"/>
<path d="M110.302 260.295C133.439 214.621 131.962 156.377 128.331 132.964L100.35 64.6899C60.7248 74.9179 71.9761 131.213 73.1167 151.744C74.9947 185.549 62.8501 229.119 55.4632 257.666C66.1054 258.542 91.9722 260.295 110.302 260.295Z" stroke="#333333" stroke-width="0.9"/>
</g>
<ellipse id="Ellipse 52" cx="1.12682" cy="2.25364" rx="1.12682" ry="2.25364" transform="matrix(-0.866025 -0.5 -0.5 0.866025 217.725 70.9888)" fill="#333333"/>
<path id="Vector 75" d="M219.228 74.3701C219.979 76.3734 220.205 79.4785 218.101 80.3798C216.975 80.8628 215.597 80.3798 215.097 79.6286" stroke="#333333" stroke-width="0.9"/>
<path id="Subtract" d="M92.6482 0.45C81.6378 0.45 72.684 9.25542 72.4447 20.2084H79.0593C79.2967 12.9077 85.2898 7.06215 92.6482 7.06215C100.157 7.06215 106.244 13.1494 106.244 20.6584C106.244 27.1285 101.726 32.5421 95.672 33.9171C94.2284 34.245 93.0982 35.3912 93.0982 36.7522C93.0982 39.06 94.9693 40.8516 97.0794 40.3796C106.109 38.3598 112.857 30.2966 112.857 20.6584C112.857 9.49761 103.809 0.45 92.6482 0.45Z" stroke="#333333" stroke-width="0.9"/>
<path id="Vector 76" d="M68.2342 19.9067H83.2585L75.3708 30.0481L68.2342 19.9067Z" fill="white" stroke="#333333" stroke-width="0.9"/>
<rect id="Rectangle 161" x="-0.551135" y="0.318198" width="8.86579" height="52.4362" transform="matrix(-0.965926 -0.258819 -0.258819 0.965926 271.563 12.9131)" fill="#EBF2FF" stroke="#333333" stroke-width="0.9"/>
<rect id="Rectangle 165" x="-0.551135" y="0.318198" width="8.86579" height="37.1558" transform="matrix(-0.965926 -0.258819 -0.258819 0.965926 303.876 38.1573)" fill="#EBF2FF" stroke="#333333" stroke-width="0.9"/>
<rect id="Rectangle 163" x="-0.551135" y="0.318198" width="8.86579" height="29.4913" transform="matrix(-0.965926 -0.258819 -0.258819 0.965926 284.012 40.502)" stroke="#333333" stroke-width="0.9"/>
<rect id="Rectangle 166" x="-0.551135" y="0.318198" width="8.86579" height="19.3545" transform="matrix(-0.965926 -0.258819 -0.258819 0.965926 315.909 60.0962)" stroke="#333333" stroke-width="0.9"/>
<circle id="Ellipse 54" cx="12.7706" cy="12.7706" r="12.7706" transform="matrix(-1 0 0 1 324.398 136.59)" fill="white"/>
<rect id="Rectangle 168" width="3.00486" height="9.76579" rx="1.50243" transform="matrix(-0.866025 -0.5 -0.5 0.866025 337.168 126.824)" fill="#266EFF"/>
<rect id="Rectangle 169" width="3.00486" height="9.76579" rx="1.50243" transform="matrix(-0.5 -0.866025 -0.866025 0.5 346.183 138.441)" fill="#266EFF"/>
<rect id="Rectangle 170" width="3.00486" height="9.76579" rx="1.50243" transform="matrix(0.5 -0.866025 -0.866025 -0.5 344.681 156.845)" fill="#266EFF"/>
<g id="Ellipse 55">
<mask id="path-24-inside-1_1250_47059" fill="white">
<path d="M237.257 275.696C237.257 282.085 239.152 288.33 242.701 293.642C246.251 298.954 251.296 303.094 257.198 305.539C263.101 307.984 269.595 308.624 275.861 307.377C282.127 306.131 287.883 303.054 292.401 298.537C296.918 294.019 299.995 288.264 301.241 281.998C302.488 275.732 301.848 269.237 299.403 263.334C296.958 257.432 292.818 252.387 287.506 248.837C282.194 245.288 275.948 243.394 269.56 243.394V275.696H237.257Z"/>
</mask>
<path d="M237.257 275.696C237.257 282.085 239.152 288.33 242.701 293.642C246.251 298.954 251.296 303.094 257.198 305.539C263.101 307.984 269.595 308.624 275.861 307.377C282.127 306.131 287.883 303.054 292.401 298.537C296.918 294.019 299.995 288.264 301.241 281.998C302.488 275.732 301.848 269.237 299.403 263.334C296.958 257.432 292.818 252.387 287.506 248.837C282.194 245.288 275.948 243.394 269.56 243.394V275.696H237.257Z" stroke="#333333" stroke-width="1.8" mask="url(#path-24-inside-1_1250_47059)"/>
</g>
<g id="Ellipse 56">
<mask id="path-25-inside-2_1250_47059" fill="white">
<path d="M265.052 238.885C260.81 238.885 256.61 239.721 252.691 241.344C248.772 242.967 245.211 245.347 242.211 248.346C239.212 251.346 236.832 254.907 235.209 258.826C233.586 262.745 232.75 266.946 232.75 271.188L265.052 271.187V238.885Z"/>
</mask>
<path d="M265.052 238.885C260.81 238.885 256.61 239.721 252.691 241.344C248.772 242.967 245.211 245.347 242.211 248.346C239.212 251.346 236.832 254.907 235.209 258.826C233.586 262.745 232.75 266.946 232.75 271.188L265.052 271.187V238.885Z" fill="#EBF2FF" stroke="#333333" stroke-width="1.8" mask="url(#path-25-inside-2_1250_47059)"/>
</g>
<path id="Vector 74" d="M217.349 67.9853C215.546 65.8819 210.213 63.478 206.832 69.4877C207.584 64.9804 203.076 60.4731 200.071 66.8585C196.315 63.8536 198.444 60.2227 199.696 59.3463C197.442 57.8439 196.691 52.961 200.447 50.3317C204.639 47.3973 209.837 48.8293 210.588 51.4586C211.089 50.5822 212.241 48.8293 214.344 48.8293C216.448 48.8293 217.349 51.3334 217.349 52.5854C218.601 51.3334 221.481 48.0405 224.861 47.7025C228.618 47.3269 234.627 50.3317 235.378 57.8439C236.13 65.356 230.496 69.8633 226.739 70.6145C223.77 71.2084 219.603 70.6145 217.349 67.9853Z" fill="#333333"/>
<path id="Vector 67" d="M99.0339 83.3834C107.297 73.6176 125.326 67.8583 132.463 64.603L153.497 83.3834C162.511 87.2647 174.831 95.7033 151.994 98.4077C129.158 101.112 104.042 108.549 104.292 116.061C106.17 148.363 52.6318 138.222 99.0339 83.3834Z" fill="white" stroke="#333333" stroke-width="0.9"/>
<path id="Vector 66" d="M130.626 61.8418L152.787 101.281C168.062 96.2725 192.977 80.9978 182.084 64.471C170.046 46.2057 142.27 55.4565 130.626 61.8418Z" fill="white" stroke="#333333" stroke-width="0.9"/>
<path id="Vector 200" d="M91.2303 88.1375C87.9999 96.9209 101.762 115.029 109.048 122.986C104.267 129.16 104.219 138.919 89.2683 136.721C70.5803 133.972 71.6592 116.649 77.5274 104.467C81.9013 95.387 87.7789 89.5323 91.2303 88.1375Z" fill="white"/>
<path id="Vector 201" d="M109.048 122.986C101.762 115.029 87.9999 96.9208 91.2303 88.1375" stroke="#333333" stroke-width="0.9"/>
</g>
</svg>
