<?xml version="1.0" encoding="UTF-8"?>
<svg width="50px" height="50px" viewBox="0 0 50 50" version="1.1" xmlns="http://www.w3.org/2000/svg" xmlns:xlink="http://www.w3.org/1999/xlink">
    <title>caigouxuqiu@2x</title>
    <g id="caigouxuqiu" stroke="none" stroke-width="1" fill="none" fill-rule="evenodd">
        <path d="M24.25,5.98857727 C25.5315,5.98857727 26.7849,6.11397727 27.9983,6.35353727 C28.6756,6.48725727 29.1163,7.14470727 28.9825,7.82198727 C28.8488,8.49926727 28.1914,8.93990727 27.5141,8.80619727 C26.4593,8.59794727 25.3681,8.48857727 24.25,8.48857727 C14.9992,8.48857727 7.5,15.9877673 7.5,25.2385673 C7.5,34.4893673 14.9992,41.9885773 24.25,41.9885773 C33.5008,41.9885773 41,34.4893673 41,25.2385673 C41,23.6705673 40.7849,22.1549673 40.3833,20.7184673 C40.1975,20.0535673 40.5858,19.3639673 41.2506,19.1780673 C41.9155,18.9921673 42.6052,19.3804673 42.791,20.0453673 C43.2533,21.6988673 43.5,23.4409673 43.5,25.2385673 C43.5,35.8700673 34.8815,44.4885773 24.25,44.4885773 C13.6185,44.4885773 5,35.8700673 5,25.2385673 C5,14.6070673 13.6185,5.98857727 24.25,5.98857727 Z M24.25,14.9885673 C25.2527,14.9885673 26.2238,15.1329673 27.1427,15.4027673 C27.8051,15.5972673 28.1843,16.2919673 27.9898,16.9543673 C27.7953,17.6167673 27.1006,17.9959673 26.4382,17.8014673 C25.7458,17.5980673 25.0118,17.4885673 24.25,17.4885673 C19.9698,17.4885673 16.5,20.9583673 16.5,25.2385673 C16.5,29.5187673 19.9698,32.9885673 24.25,32.9885673 C28.5302,32.9885673 32,29.5187673 32,25.2385673 C32,24.5644673 31.9142,23.9121673 31.7536,23.2913673 C31.5808,22.6229673 31.9825,21.9410673 32.6508,21.7681673 C33.3192,21.5952673 34.0011,21.9969673 34.174,22.6653673 C34.387,23.4889673 34.5,24.3514673 34.5,25.2385673 C34.5,30.8994673 29.9109,35.4885673 24.25,35.4885673 C18.5891,35.4885673 14,30.8994673 14,25.2385673 C14,19.5776673 18.5891,14.9885673 24.25,14.9885673 Z M40.1999,6.80920727 L40.6154,8.87969727 L42.6743,9.29004727 C44.4373,9.64145727 45.0966,11.8164673 43.8254,13.0876673 L37.04,19.8730673 C36.5091,20.4039673 35.7485,20.6350673 35.012,20.4892673 L31.5104,19.7959673 L24.7752,26.5311673 C24.287,27.0192673 23.4956,27.0192673 23.0074,26.5311673 C22.5193,26.0429673 22.5193,25.2515673 23.0074,24.7633673 L29.7227,18.0480673 L29.0027,14.4831673 C28.8534,13.7442673 29.0841,12.9797673 29.6171,12.4466673 L36.4029,5.66092727 C37.6731,4.39068727 39.8464,5.04792727 40.1999,6.80920727 Z M37.8406,7.75874727 L31.4797,14.1196673 L32.1142,17.2606673 L32.1998,17.3387673 L32.2521,17.3942673 L35.3666,18.0109673 L41.7271,11.6504673 L39.9633,11.2988673 C39.128175,11.132461 38.4636457,10.5105177 38.2365975,9.69962594 L38.1971,9.53500727 L37.8406,7.75874727 Z" id="形状结合" fill="#999999"></path>
    </g>
</svg>