<?xml version="1.0" encoding="UTF-8"?>
<svg width="50px" height="50px" viewBox="0 0 50 50" version="1.1" xmlns="http://www.w3.org/2000/svg" xmlns:xlink="http://www.w3.org/1999/xlink">
    <title>duiwaitouzi@2x</title>
    <g id="duiwaitouzi" stroke="none" stroke-width="1" fill="none" fill-rule="evenodd">
        <path d="M25.25,5 C36.4338,5 45.5,14.0662 45.5,25.25 C45.5,36.4338 36.4338,45.5 25.25,45.5 C14.0662,45.5 5,36.4338 5,25.25 C5,14.0662 14.0662,5 25.25,5 Z M25.25,7.5 C15.4469,7.5 7.5,15.4469 7.5,25.25 C7.5,26.7713 7.69139,28.2479 8.0514,29.6571 L12.711,25.8613 C13.5647,25.1658 14.7965,25.1905 15.6217,25.9195 L19.9935,29.7818 L31.6207,18.7407 L24.7852,18.7407 C24.0948,18.7407 23.5352,18.1811 23.5352,17.4907 C23.5352,16.8004 24.0948,16.2407 24.7852,16.2407 L33.9559,16.2407 C35.1985,16.2407 36.2059,17.2481 36.2059,18.4907 L36.2059,27.2823 C36.2059,27.9726 35.6462,28.5323 34.9559,28.5323 C34.2655,28.5323 33.7059,27.9726 33.7059,27.2823 L33.7059,20.2082 L21.5489,31.7524 C20.7032,32.5555 19.384,32.5792 18.5099,31.807 L14.1255,27.9336 L8.90603,32.1854 C11.6069,38.5421 17.9078,43 25.25,43 C35.0531,43 43,35.0531 43,25.25 C43,15.4469 35.0531,7.5 25.25,7.5 Z" id="形状结合" fill="#999999"></path>
    </g>
</svg>