<?xml version="1.0" encoding="UTF-8"?>
<svg width="50px" height="50px" viewBox="0 0 50 50" version="1.1" xmlns="http://www.w3.org/2000/svg" xmlns:xlink="http://www.w3.org/1999/xlink">
    <title>falvsusong@2x</title>
    <g id="falvsusong" stroke="none" stroke-width="1" fill="none" fill-rule="evenodd">
        <path d="M39.60626,39.5583775 C41.1404302,39.5583775 42.5803236,40.1808723 43.6431475,41.262164 C44.6421563,42.2785874 45.2410285,43.6313637 45.3131056,45.0802079 L45.3204595,45.3711865 L45.3215414,46.6107381 L18.23716,46.8617142 L18.23716,45.6000775 C18.23716,43.85348 18.8222787,42.3725128 19.9120828,41.2631571 C20.9122952,40.2450682 22.2468144,39.6332658 23.6789487,39.5648118 L23.94856,39.5583775 L39.60626,39.5583775 Z M25.9759359,4.99478648 C26.7135259,5.73236382 27.1233358,6.67359441 27.205367,7.63746657 L40.3323488,20.7652843 C41.2965654,20.8471156 42.2381646,21.2569522 42.9759435,21.994794 C44.6357051,23.6545557 44.6357051,26.345541 42.9759497,28.0051547 L42.9759497,28.0051547 L35.9049435,35.076261 C34.2451881,36.7360163 31.5542319,36.7360163 29.8944388,35.0762233 C29.1571737,34.3388952 28.7474309,33.3980661 28.6652139,32.4345515 L25.6059971,29.3739958 L10.4193303,44.5618741 C9.58243433,45.3985559 8.25057847,45.4383978 7.36656635,44.6813064 L7.23744121,44.5617657 L4.40902916,41.7333836 C3.57216674,40.896564 3.53231614,39.5644786 4.28945713,38.6805112 L4.40900571,38.5513948 L19.5619971,23.3969958 L15.5261708,19.3047246 C14.5661253,19.2205189 13.6292351,18.8110195 12.8944388,18.0762233 C11.2883633,16.4700107 11.2365544,13.8980783 12.7390463,12.2296554 L12.8944765,12.065894 L19.9655878,4.99478271 C21.6253469,3.33506614 24.3163148,3.33506614 25.9759359,4.99478648 Z M39.60626,42.0583775 L23.94856,42.0583775 C23.0960049,42.0583775 22.294988,42.4049315 21.6954664,43.0151682 C21.4160234,43.2996245 21.1944097,43.6274428 21.0349925,44.0019695 L20.9468406,44.2323174 L20.914,44.337 L42.585,44.136 L42.5687796,44.0899101 C42.4596331,43.8233506 42.3166421,43.5722105 42.1430737,43.3424579 L42.0072152,43.1742467 L41.8601965,43.0146154 C41.2606278,42.4046285 40.4597143,42.0583775 39.60626,42.0583775 Z M26.4598091,10.4279604 C26.3654484,10.5632158 26.262312,10.6942076 26.1503998,10.8201431 L25.9759497,11.0051547 L18.9049435,18.076261 C18.7196339,18.2615706 18.5214699,18.4261906 18.3133218,18.570121 L23.0964568,23.4214528 L21.5299971,24.9649958 L6.353,40.142 L8.828,42.616 L24.8709971,26.5739958 L25.540318,25.8394317 L26.3000435,26.532594 L29.4106479,29.643085 C29.55218,29.4402034 29.7134562,29.2469144 29.8944765,29.065894 L29.8944765,29.065894 L36.9655765,21.994794 C37.1466092,21.8137614 37.3399098,21.6524742 37.5428022,21.5109326 L26.4598091,10.4279604 Z M41.2081388,23.7625233 C40.5247965,23.0791226 39.4167818,23.0791226 38.7333435,23.762561 L38.7333435,23.762561 L31.6622435,30.833661 C30.9788926,31.5170119 30.9788926,32.6250848 31.6622435,33.308494 C32.3456881,33.9919387 33.4537319,33.9919387 34.1371703,33.3085003 L34.1371703,33.3085003 L41.2082142,26.2373563 C41.8916149,25.554014 41.8916149,24.4459993 41.2081388,23.7625233 Z M21.8581835,6.64905308 L21.7333435,6.76256098 L14.6622435,13.833661 C13.9788926,14.5170119 13.9788926,15.6250848 14.6622435,16.308494 C15.3054855,16.951736 16.324843,16.9895738 17.0123287,16.4220125 L17.1371703,16.3085003 L24.2082029,9.23736762 C24.8916155,8.55399588 24.8916155,7.44598829 24.2081501,6.76253457 C23.565002,6.11934802 22.5456603,6.08151351 21.8581835,6.64905308 Z" id="形状结合" fill="#999999" fill-rule="nonzero"></path>
    </g>
</svg>