<?xml version="1.0" encoding="UTF-8"?>
<svg width="50px" height="50px" viewBox="0 0 50 50" version="1.1" xmlns="http://www.w3.org/2000/svg" xmlns:xlink="http://www.w3.org/1999/xlink">
    <title>gongshangxinxi@2x</title>
    <g id="gongshangxinxi" stroke="none" stroke-width="1" fill="none" fill-rule="evenodd">
        <path d="M24.4939992,5 C24.7605592,5 25.0251352,5.04027522 25.2789208,5.11916675 L25.4670992,5.18555003 L39.2163992,10.6266 C40.0600992,10.9606 40.6776992,11.7044 40.8561992,12.6009 C42.3941642,20.330115 42.3936377,26.3117961 40.778988,30.5861689 L40.6515992,30.9116 L40.6347992,30.9522 L40.6159992,30.9921 C38.1639717,36.2064 33.4297788,40.6395715 26.465788,44.3199762 L25.9256992,44.6016 L25.7107992,44.7117 C25.3391992,44.9012 24.9279992,45 24.5107992,45 C24.0993992,45 23.6936992,44.9039 23.3259992,44.7195 C16.162487,41.1317927 11.2361194,36.6963995 8.60597381,31.3915911 L8.41301923,30.9921 L8.37316923,30.9073 L8.34308923,30.8182 C6.60557923,25.6436 6.56026923,19.5423 8.17004923,12.5305 C8.35394351,11.7296072 8.88982341,11.0614138 9.61910299,10.7104711 L9.79075923,10.6352 L23.5185992,5.18672003 C23.8289992,5.06331003 24.1599992,5 24.4939992,5 Z M24.4939992,7.50002003 L24.4671992,7.50261003 L24.4671992,7.50261003 L24.4412992,7.51018003 L10.7129992,12.9587 C10.6606992,12.9794 10.6207992,13.0286 10.6067992,13.0899 C9.10833923,19.6154 9.13879923,25.2955 10.6969992,29.9745 C13.0145992,34.8679 17.6399992,39.0761 24.4455992,42.4843 C24.4666992,42.4949 24.4884992,42.5004 24.5111992,42.5004 L24.5445617,42.496325 L24.5445617,42.496325 L24.5767992,42.4843 L24.7869992,42.3769 C31.5287992,38.9081 36.0917992,34.7261 38.3452992,29.9483 C39.8616992,26.1936 39.8831992,20.5185 38.4050992,13.0891 C38.3954242,13.0417 38.369718,13.00015 38.3346883,12.9732672 L38.2967992,12.9516 L24.5470992,7.51018003 C24.5298992,7.50354003 24.5119992,7.50002003 24.4939992,7.50002003 Z M29.5002992,17.5001 C30.1877992,17.5001 30.7502992,18.0626 30.7502992,18.7501 C30.7502992,19.4376 30.1877992,20.0001 29.5002992,20.0001 L25.7502992,20.0001 L25.7502992,27.5002 L30.7502992,27.5002 C31.4377992,27.5002 32.0002992,28.0627 32.0002992,28.7502 C32.0002992,29.4377 31.4377992,30.0002 30.7502992,30.0002 L18.2501992,30.0002 C17.5626992,30.0002 17.0001992,29.4377 17.0001992,28.7502 C17.0001992,28.0627 17.5626992,27.5002 18.2501992,27.5002 L23.2501992,27.5002 L23.2501992,20.0001 L19.5001992,20.0001 C18.8126992,20.0001 18.2501992,19.4376 18.2501992,18.7501 C18.2501992,18.0626 18.8126992,17.5001 19.5001992,17.5001 L29.5002992,17.5001 Z" id="形状结合" fill="#999999"></path>
    </g>
</svg>