<?xml version="1.0" encoding="UTF-8"?>
<svg width="50px" height="50px" viewBox="0 0 50 50" version="1.1" xmlns="http://www.w3.org/2000/svg" xmlns:xlink="http://www.w3.org/1999/xlink">
    <title>lianxinxi@2x</title>
    <g id="lianxinxi" stroke="none" stroke-width="1" fill="none" fill-rule="evenodd">
        <path d="M34.9123,5 C39.1393,5 42.5,8.52404 42.5,12.7885 L42.5,12.7885 L42.5,20.7115 C42.5,21.4019 41.9404,21.9615 41.25,21.9615 C40.5596,21.9615 40,21.4019 40,20.7115 L40,20.7115 L40,12.7885 C40,9.8307 37.6857,7.5 34.9123,7.5 L34.9123,7.5 L13.5877,7.5 C10.8143,7.5 8.5,9.8307 8.5,12.7885 L8.5,12.7885 L8.5,37.7115 C8.5,40.6693 10.8143,43 13.5877,43 L13.5877,43 L23.9123,43 C24.6026,43 25.1623,43.5596 25.1623,44.25 C25.1623,44.9404 24.6026,45.5 23.9123,45.5 L23.9123,45.5 L13.5877,45.5 C9.3607,45.5 6,41.976 6,37.7115 L6,37.7115 L6,12.7885 C6,8.52404 9.3607,5 13.5877,5 L13.5877,5 Z M36.9778,23.3933 C39.2444,23.7755 41.0389,25.4954 41.4167,27.7886 C41.7944,29.8907 40.9444,31.9928 39.2444,33.235 L39.6622,34.8947 C39.774,35.3391 40.1737,35.6506 40.6319,35.6506 L41.5111,35.6506 C43.0222,35.6506 44.25,36.8928 44.25,38.326 L44.25,41.6701 C44.25,43.0078 43.0222,44.25 41.5111,44.25 L29.9889,44.2142 C28.4778,44.2142 27.25,42.972 27.25,41.5388 L27.25,38.326 C27.25,36.8928 28.4778,35.6506 29.9889,35.6506 L30.9838,35.6506 C31.4513,35.6506 31.8564,35.3268 31.9593,34.8708 L32.35,33.1395 C30.9333,32.0884 30.0833,30.464 30.0833,28.7441 C30.0833,27.1198 30.8389,25.591 32.0667,24.5399 C33.3889,23.3933 34.7111,23.0111 36.9778,23.3933 Z M34.7636,25.8214 C34.4576,25.8964 34.1427,26.0487 33.7045,26.4287 L33.6985,26.4339 L33.6925,26.4391 C32.9791,27.0498 32.5833,27.9017 32.5833,28.7441 C32.5833,29.6302 33.0237,30.5264 33.8396,31.1317 L35.147,32.1017 L34.7887,33.6898 L34.398,35.4211 C34.0378,37.0171 32.62,38.1506 30.9838,38.1506 L29.9889,38.1506 C29.9311,38.1506 29.8668,38.1731 29.8095,38.2296 C29.7817,38.257 29.7652,38.2839 29.7569,38.3029 C29.7544,38.3087 29.7528,38.3133 29.7518,38.3167 C29.7513,38.3187 29.7509,38.3202 29.7506,38.3214 L29.7506,41.5434 C29.7513,41.5467 29.753,41.5529 29.7569,41.5619 C29.7652,41.5809 29.7817,41.6078 29.8095,41.6352 C29.8668,41.6917 29.9311,41.7142 29.9889,41.7142 L29.9967,41.7142 L41.5111,41.75 L41.5129,41.75 C41.5731,41.7495 41.6475,41.7241 41.7126,41.6614 C41.7306,41.644 41.7426,41.6286 41.75,41.6175 L41.75,38.326 C41.75,38.3258 41.75,38.3245 41.7494,38.3214 C41.7487,38.3181 41.747,38.3119 41.7431,38.3029 C41.7348,38.2839 41.7183,38.257 41.6905,38.2296 C41.6332,38.1731 41.5689,38.1506 41.5111,38.1506 L40.6319,38.1506 C39.028,38.1506 37.6293,37.0604 37.2378,35.5049 L36.8201,33.8452 L36.4087,32.2108 L37.7695,31.2164 C38.6969,30.5388 39.1648,29.3923 38.9561,28.2308 L38.9529,28.2129 L38.9499,28.195 C38.7533,27.0017 37.8221,26.071 36.5621,25.8585 C35.6306,25.7015 35.1011,25.7386 34.7636,25.8214 Z M26.4859,23.6519 C27.0576,23.6519 27.5211,24.2115 27.5211,24.9019 C27.5211,25.5922 27.0576,26.1519 26.4859,26.1519 L15.5563,26.1519 C14.9846,26.1519 14.5211,25.5922 14.5211,24.9019 C14.5211,24.2115 14.9846,23.6519 15.5563,23.6519 L26.4859,23.6519 Z M32.0333,15.8359 C32.8701,15.8359 33.5484,16.3956 33.5484,17.0859 C33.5484,17.7763 32.8701,18.3359 32.0333,18.3359 L32.0333,18.3359 L16.0363,18.3359 C15.1995,18.3359 14.5211,17.7763 14.5211,17.0859 C14.5211,16.3956 15.1995,15.8359 16.0363,15.8359 L16.0363,15.8359 Z" id="形状结合" fill="#999999"></path>
    </g>
</svg>