<?xml version="1.0" encoding="UTF-8"?>
<svg width="50px" height="50px" viewBox="0 0 50 50" version="1.1" xmlns="http://www.w3.org/2000/svg" xmlns:xlink="http://www.w3.org/1999/xlink">
    <title>qiyezizhi@2x</title>
    <g id="qiyezizhi" stroke="none" stroke-width="1" fill="none" fill-rule="evenodd">
        <path d="M25.2956933,4 C34.2702933,4 41.5456933,11.2754 41.5456933,20.25 C41.5456933,22.2481846 41.1850116,24.1621846 40.5252334,25.9304149 L40.3540933,26.3694 L46.7612933,37.467 C47.3870183,38.5507607 46.7050995,39.9047349 45.4942672,40.074486 L45.3575933,40.0884 L38.7088933,40.5144 L35.4590933,45.741 C34.7890133,46.818696 33.2482056,46.8370128 32.5412911,45.8239965 L32.4573933,45.692 L27.0935933,36.4017 C26.5032933,36.4666 25.9033933,36.5 25.2956933,36.5 C24.9782266,36.5 24.6629377,36.4908889 24.3500044,36.4729333 L23.8823933,36.4394 L18.5403933,45.692 C17.9059293,46.790912 16.3665462,46.8596595 15.626865,45.8701964 L15.5386933,45.741 L12.2889933,40.5144 L5.64022328,40.0884 C4.39129971,40.0083643 3.64244782,38.6902374 4.17238886,37.588456 L4.23657328,37.467 L10.4091133,26.7758 C9.53230328,24.7785 9.04566328,22.5711 9.04566328,20.25 C9.04566328,11.2754 16.3209933,4 25.2956933,4 Z M38.9884933,29.0041 C36.8650933,32.3186 33.5711933,34.8112 29.6900933,35.8988 L33.9967933,43.3582 L36.7895933,38.8665 C37.0879933,38.3866 37.5997933,38.0803 38.1637933,38.0442 L43.9921933,37.6707 L38.9884933,29.0041 Z M11.8193933,29.3332 L7.00567328,37.6707 L12.8339933,38.0442 C13.3415933,38.07669 13.8069113,38.328042 14.1125054,38.7278346 L14.2082933,38.8665 L17.0010933,43.3582 L21.2532933,35.9932 C17.3501933,34.994 14.0129933,32.5815 11.8193933,29.3332 Z M25.2956933,6.5 C17.7017933,6.5 11.5456933,12.6561 11.5456933,20.25 C11.5456933,27.8439 17.7017933,34 25.2956933,34 C32.8895933,34 39.0456933,27.8439 39.0456933,20.25 C39.0456933,12.6561 32.8895933,6.5 25.2956933,6.5 Z M25.2956933,10 C30.9565933,10 35.5456933,14.5891 35.5456933,20.25 C35.5456933,25.9109 30.9565933,30.5 25.2956933,30.5 C19.6347933,30.5 15.0456933,25.9109 15.0456933,20.25 C15.0456933,14.5891 19.6347933,10 25.2956933,10 Z M25.2956933,12.5 C21.0154933,12.5 17.5456933,15.9698 17.5456933,20.25 C17.5456933,24.5302 21.0154933,28 25.2956933,28 C29.5758933,28 33.0456933,24.5302 33.0456933,20.25 C33.0456933,15.9698 29.5758933,12.5 25.2956933,12.5 Z" id="形状结合" fill="#999999"></path>
    </g>
</svg>