<?xml version="1.0" encoding="UTF-8"?>
<svg width="50px" height="50px" viewBox="0 0 50 50" version="1.1" xmlns="http://www.w3.org/2000/svg" xmlns:xlink="http://www.w3.org/1999/xlink">
    <title>record-stroke@2x</title>
    <g id="record-stroke" stroke="none" stroke-width="1" fill="none" fill-rule="evenodd">
        <path d="M35.9123,5 C40.0580115,5 43.3704219,8.38980327 43.4962892,12.5433147 L43.5,12.7885 L43.5,37.7115 C43.5,41.8939904 40.2673148,45.3641877 36.1551865,45.49611 L35.9123,45.5 L14.5877,45.5 C10.4419885,45.5 7.12957807,42.1102352 7.00371085,37.9566875 L7,37.7115 L7,12.7885 C7,8.60604885 10.2326852,5.13581382 14.3448135,5.00389001 L14.5877,5 L35.9123,5 Z M35.9123,7.5 L14.5877,7.5 C11.8854128,7.5 9.61898389,9.71270927 9.50453342,12.5622425 L9.5,12.7885 L9.5,37.7115 C9.5,40.593459 11.6971395,42.8800646 14.3752983,42.9954317 L14.5877,43 L35.9123,43 C38.6145872,43 40.8810161,40.7872907 40.9954666,37.9377575 L41,37.7115 L41,12.7885 C41,9.8307 38.6857,7.5 35.9123,7.5 Z M26.653,31.4678 C27.4898,31.4678 28.1682,32.0274 28.1682,32.7178 C28.1682,33.4081 27.4898,33.9678 26.653,33.9678 L26.653,33.9678 L16.911,33.9678 C16.0742,33.9678 15.3959,33.4081 15.3959,32.7178 C15.3959,32.0274 16.0742,31.4678 16.911,31.4678 L16.911,31.4678 Z M33.0333,23.6519 C33.8701,23.6519 34.5484,24.2115 34.5484,24.9019 C34.5484,25.5922 33.8701,26.1519 33.0333,26.1519 L17.0363,26.1519 C16.1995,26.1519 15.5211,25.5922 15.5211,24.9019 C15.5211,24.2115 16.1995,23.6519 17.0363,23.6519 L33.0333,23.6519 Z M33.0333,15.8359 C33.8701,15.8359 34.5484,16.3956 34.5484,17.0859 C34.5484,17.7763 33.8701,18.3359 33.0333,18.3359 L33.0333,18.3359 L17.0363,18.3359 C16.1995,18.3359 15.5211,17.7763 15.5211,17.0859 C15.5211,16.3956 16.1995,15.8359 17.0363,15.8359 L17.0363,15.8359 Z" id="形状结合" fill="#999999"></path>
    </g>
</svg>