<?xml version="1.0" encoding="UTF-8"?>
<svg width="50px" height="50px" viewBox="0 0 50 50" version="1.1" xmlns="http://www.w3.org/2000/svg" xmlns:xlink="http://www.w3.org/1999/xlink">
    <title>shixinbeizhixing@2x</title>
    <g id="shixinbeizhixing" stroke="none" stroke-width="1" fill="none" fill-rule="evenodd">
        <path d="M36,22.75 C39.2679866,22.75 42.3954978,23.8060468 44.9343334,25.7409958 C45.7937807,26.4335781 46.1950182,27.0568832 46.2446967,27.9477759 L46.25,28.1429 L46.25,31.8095 C46.25,37.8464932 42.3526793,43.1304257 36.6920289,45.0869467 L36.3815303,45.1903506 L36,45.3126384 L35.6184697,45.1903506 C29.9014953,43.3579504 25.8951209,38.1543687 25.7538591,32.1835275 L25.75,31.8571 L25.75,28.1905 C25.75,27.4556938 26.0519283,26.8219967 26.5393886,26.2881058 C26.8319099,25.9677218 27.1303008,25.7381865 27.4091101,25.5646318 C29.8849509,23.7426381 32.8568368,22.75 36,22.75 Z M36,25.25 C33.3945793,25.25 30.9408875,26.0695563 28.8200699,27.6266281 C28.5081302,27.8247098 28.3003244,28.0363569 28.2579964,28.1518933 L28.25,28.1905 L28.25,31.8571 C28.25,36.5580007 31.1897867,40.735527 35.5276653,42.499722 L35.8125367,42.6113372 L36,42.679 L36.188125,42.6110928 C40.4970509,40.986036 43.4893896,37.0066976 43.7338173,32.4181791 L43.7460258,32.1113945 L43.75,31.8095 L43.75,28.1429 L43.7468964,28.0701983 C43.7438941,28.049281 43.7379908,28.0305562 43.7263869,28.0106512 L43.7043555,27.9794872 L43.6262407,27.9017312 L43.392442,27.7085866 C41.3157364,26.1263216 38.7204864,25.25 36,25.25 Z M18,30.25 C12.5417498,30.25 8.03359388,34.3179745 7.34197046,39.5874851 L7.322,39.75 L21.8061,39.75 C22.4533087,39.75 22.9856339,40.2418747 23.0496464,40.8721948 L23.0561,41 C23.0561,41.6472087 22.5642253,42.1795339 21.9339052,42.2435464 L21.8061,42.25 L4.75,42.25 L4.75,41 C4.75,34.4518419 9.50008616,29.0130954 15.7424685,27.9415506 C13.3766954,25.9633443 11.8367123,22.8905531 11.7535462,19.4376687 L11.75,19.1429 L11.75,15.8571 C11.75,9.74692122 16.3124048,4.75 22,4.75 C27.5958598,4.75 32.1025329,9.58703014 32.2464538,15.5623313 L32.25,15.8571 L32.25,19.1429 C32.25,19.8332559 31.6903559,20.3929 31,20.3929 C30.3527913,20.3929 29.8204661,19.9010253 29.7564536,19.2707052 L29.75,19.1429 L29.75,15.8571 C29.75,11.0794326 26.2535627,7.25 22,7.25 C17.825207,7.25 14.3797573,10.938915 14.2535798,15.5926679 L14.25,15.8571 L14.25,19.1429 C14.25,23.9205674 17.7464373,27.75 22,27.75 C22.6903559,27.75 23.25,28.3096441 23.25,29 C23.25,29.6903559 22.6903559,30.25 22,30.25 L18,30.25 Z M35.9502,37 C36.6406,37 37.2002,37.5596 37.2002,38.25 C37.2002,38.9404 36.6406,39.5 35.9502,39.5 C35.2598,39.5 34.7002,38.9404 34.7002,38.25 C34.7002,37.5596 35.2598,37 35.9502,37 Z M35.9502,28 C36.59745,28 37.1297391,28.4918359 37.1937469,29.1221875 L37.2002,29.25 L37.2002,34.75 C37.2002,35.4404 36.6406,36 35.9502,36 C35.30295,36 34.7706609,35.5081641 34.7066531,34.8778125 L34.7002,34.75 L34.7002,29.25 C34.7002,28.5596 35.2598,28 35.9502,28 Z" id="形状结合" fill="#999999" fill-rule="nonzero"></path>
    </g>
</svg>