<?xml version="1.0" encoding="UTF-8"?>
<svg width="50px" height="50px" viewBox="0 0 50 50" version="1.1" xmlns="http://www.w3.org/2000/svg" xmlns:xlink="http://www.w3.org/1999/xlink">
    <title>shuishouweifa@2x</title>
    <g id="shuishouweifa" stroke="none" stroke-width="1" fill="none" fill-rule="evenodd">
        <path d="M40,6.75 C44.0040644,6.75 47.25,9.99593556 47.25,14 L47.25,14 L47.25,36 C47.25,40.0040644 44.0040644,43.25 40,43.25 L40,43.25 L10,43.25 C5.99593556,43.25 2.75,40.0040644 2.75,36 L2.75,36 L2.75,14 C2.75,9.99593556 5.99593556,6.75 10,6.75 L10,6.75 Z M40,9.25 L10,9.25 C7.37664744,9.25 5.25,11.3766474 5.25,14 L5.25,14 L5.25,36 C5.25,38.6233526 7.37664744,40.75 10,40.75 L10,40.75 L40,40.75 C42.6233526,40.75 44.75,38.6233526 44.75,36 L44.75,36 L44.75,14 C44.75,11.3766474 42.6233526,9.25 40,9.25 L40,9.25 Z M38.5,31 C39.3284,31 40,31.6716 40,32.5 C40,33.3284 39.3284,34 38.5,34 L38.5,34 L28.5,34 C27.6716,34 27,33.3284 27,32.5 C27,31.6716 27.6716,31 28.5,31 L28.5,31 Z M12.8721,17 L13.4112,17.6622 L13.9996,18.3851 C13.5468,18.704 13.0804,18.9761 12.601,19.201 C12.8431,19.3835 12.9996,19.6735 12.9996,20 L12.9996,20 L12.9996,22 L13.9996,22 C14.5516,22 14.9991,22.4472 14.9996,22.999 L14.9996,22.999 L14.9996,21 C14.9996,20.4477 15.4473,20 15.9996,20 L15.9996,20 L16.2319,20 L15.5616,18.9761 C15.2519,18.503 15.3868,17.8682 15.8621,17.5619 C16.3326,17.2589 16.9594,17.3921 17.2659,17.8603 L17.2659,17.8603 L18.6666,20 L19.2694,20 L20.6701,17.8603 C20.9766,17.3921 21.6034,17.2589 22.0739,17.5619 C22.5492,17.8682 22.6841,18.503 22.3744,18.9761 L22.3744,18.9761 L21.7041,20 L21.9996,20 C22.5519,20 22.9996,20.4477 22.9996,21 L22.9996,21 L22.9996,26 C22.9996,26.5523 22.5519,27 21.9996,27 L21.9996,27 L21.0888,27 L21.088425,30.3256875 L21.088425,30.3256875 L21.0876,30.3958 C21.084,30.6793 21.0806,30.947 21.2139,31.0264 C21.3692,31.1189 21.932,31.0869 22.1536,30.9724 C22.4967,30.7951 22.7345,30.4868 22.9053,30.0121 C23.0761,29.5374 23.3854,28.9976 23.9515,28.9976 C24.528,28.9976 25.0379,29.5 24.9973,30.0121 C24.9923,30.0762 24.9885,30.1243 24.9858,30.1593 L24.9858,30.1593 L24.9225148,30.390263 C24.5503466,31.6637577 23.9407444,32.3444556 22.7345,32.801 C22.2117,32.9989 21.6825,32.9996 21.3723,33 L21.3723,33 L21.2068,33 C21.1385,32.9998 21.074,32.9997 21.0212,33 C19.3992,33 19.137,32.2092 18.9996,30.3172 L18.9996,30.3172 L18.9996,27 L18.9246,27 C18.6237,29.5238 17.5861,31.4176 15.7979,32.6023 C15.6412,32.8097 15.4057,32.954 15.1359,32.9908 L15.1359,32.9908 L15.118,33 C15.0766,32.9978 15.0383,33 14.9996,33 C14.4473,33 13.9996,32.5523 13.9996,32 C13.9996,31.7859 14.0669,31.5876 14.1814,31.4249 L14.1814,31.4249 L13.9996,31.1192 C15.4348,30.3813 16.3064,29.0405 16.5973,27 L16.5973,27 L15.9996,27 C15.4473,27 14.9996,26.5523 14.9996,26 L14.9996,26 L14.9996,23.001 C14.9991,23.5528 14.5516,24 13.9996,24 L13.9996,24 L13.3424,24 L14.3879,26.0838 C14.6399,26.5859 14.4381,27.1972 13.9367,27.4506 C13.6299,27.6057 13.2819,27.5909 12.9996,27.4417 L12.9996,27.4417 L12.9996,32 C12.9996,32.5523 12.5519,33 11.9996,33 C11.4473,33 10.9996,32.5523 10.9996,32 L10.9996,32 L10.9996,27.6546 L10.3112,29.0245 C10.058,29.5284 9.44381,29.7309 8.94057,29.4766 C8.43899,29.223 8.23726,28.6113 8.48961,28.1092 L8.48961,28.1092 L10.5546,24 L9.9996,24 C9.44731,24 8.9996,23.5523 8.9996,23 C8.9996,22.4477 9.44731,22 9.9996,22 L9.9996,22 L10.9996,22 L10.9996,20 C10.9996,19.9165 11.0098,19.8354 11.0291,19.7579 C10.3726,19.919 9.69557,20 8.9996,20 L8.9996,20 L8.9996,18.2626 C10.3877,18.2626 11.6694,17.8469 12.8721,17 L12.8721,17 Z M38.5,24 C39.3284,24 40,24.6716 40,25.5 C40,26.3284 39.3284,27 38.5,27 L28.5,27 C27.6716,27 27,26.3284 27,25.5 C27,24.6716 27.6716,24 28.5,24 L38.5,24 Z M20.9996,22 L16.9996,22 L16.9996,25 L20.9996,25 L20.9996,22 Z M31.5,17 C32.3284,17 33,17.6716 33,18.5 C33,19.3284 32.3284,20 31.5,20 L28.5,20 C27.6716,20 27,19.3284 27,18.5 C27,17.6716 27.6716,17 28.5,17 L31.5,17 Z" id="形状结合" fill="#999999" fill-rule="nonzero"></path>
    </g>
</svg>