<?xml version="1.0" encoding="UTF-8"?>
<svg width="50px" height="50px" viewBox="0 0 50 50" version="1.1" xmlns="http://www.w3.org/2000/svg" xmlns:xlink="http://www.w3.org/1999/xlink">
    <title>xiangmuhezuo@2x</title>
    <g id="xiangmuhezuo" stroke="none" stroke-width="1" fill="none" fill-rule="evenodd">
        <path d="M41.6095976,10.9717973 C45.9193976,15.0173973 46.1505976,21.7174973 42.1294976,26.0420973 L41.7643976,26.4195973 L25.6358976,42.3085973 C25.2465976,42.6920973 24.6214976,42.6920973 24.2321976,42.3084973 L8.39420759,26.7033973 C3.98411759,22.3580973 3.84782759,15.4208973 8.12420759,11.2073973 C12.2745976,7.11806726 19.0272976,7.12567726 23.4553976,11.1009973 L23.8513976,11.4734973 L24.9339976,12.5426973 L26.3071976,11.1896973 C30.4965976,7.02302726 37.2997976,6.92615726 41.6095976,10.9717973 Z M22.0307976,13.2647973 C18.6106976,9.89497726 13.1976976,9.79363726 9.94481759,12.9986973 L9.94481759,12.9986973 C6.79988759,16.0973973 6.79217759,21.1748973 9.87023759,24.5547973 L9.87023759,24.5547973 L10.2122976,24.9094973 L24.9339976,39.4173973 L28.5777976,35.8245973 L19.4901976,26.8680973 L21.3081976,25.0741973 L30.3957976,34.0332973 L33.1215976,31.3475973 L27.6700976,25.9711973 L29.4906976,24.1798973 L34.9421976,29.5537973 L36.7524976,27.7700973 L29.2180976,20.3463973 L25.8519976,23.6603973 L19.7524976,17.6479973 L23.1159976,14.3339973 Z M28.4697976,12.6617973 L28.1251976,12.9809973 L23.3910976,17.6479973 L25.8545976,20.0752973 L28.5803976,17.3895973 L28.6240976,17.4351973 L29.2617976,16.8068973 L38.5705976,25.9787973 L39.9437976,24.6282973 C43.0788976,21.5407973 43.2221976,16.5786973 40.2702976,13.3204973 L39.9437976,12.9809973 C36.8097976,9.89425726 31.7754976,9.75418726 28.4697976,12.6617973 Z" id="形状结合" fill="#999999"></path>
    </g>
</svg>