<?xml version="1.0" encoding="UTF-8"?>
<svg width="50px" height="50px" viewBox="0 0 50 50" version="1.1" xmlns="http://www.w3.org/2000/svg" xmlns:xlink="http://www.w3.org/1999/xlink">
    <title>xiangmukaipan@2x</title>
    <g id="xiangmukaipan" stroke="none" stroke-width="1" fill="none" fill-rule="evenodd">
        <path d="M28.4504172,6.00110807 L28.718145,6.0134444 L39.400545,6.7789744 C41.4283217,6.9242934 43.0585857,8.48216535 43.3125251,10.4798666 L43.333845,10.6880544 L44.172945,21.4594544 C44.2851332,22.8992662 43.7992204,24.3173755 42.8370945,25.3838014 L42.651145,25.5795544 L25.568945,42.6617544 C23.577225,44.6534744 20.3834537,44.7103807 18.3230451,42.8324733 L18.144245,42.6617544 L7.537695,32.0551544 C5.54601386,30.0635315 5.48910868,26.8696687 7.36697947,24.8093464 L7.537695,24.6305544 L24.630545,7.5377144 C25.5807509,6.58747322 26.8537422,6.04266025 28.1837369,6.00240279 L28.4504172,6.00110807 Z M26.5436987,9.17017355 L26.398245,9.3054744 L9.305455,26.3983544 C8.2762625,27.4275086 8.23337948,29.0695129 9.17680594,30.1497379 L9.305455,30.2873544 L19.912045,40.8939544 C20.941295,41.9232044 22.5833033,41.9660898 23.6635285,41.0226107 L23.801145,40.8939544 L40.883345,23.8117544 C41.4042867,23.2908127 41.6924714,22.5848419 41.6888206,21.8535927 L41.680545,21.6536544 L40.841445,10.8821544 C40.7781038,10.0696368 40.1644069,9.41561765 39.3723542,9.28987928 L39.221845,9.2725844 L28.539445,8.5070544 C27.8099617,8.45478607 27.0927464,8.6952285 26.5436987,9.17017355 Z M30.902545,13.2896544 C34.078245,13.2896544 36.652545,15.8639544 36.652545,19.0396544 C36.652545,22.2152544 34.078245,24.7896544 30.902545,24.7896544 C27.726945,24.7896544 25.152545,22.2152544 25.152545,19.0396544 C25.152545,15.8639544 27.726945,13.2896544 30.902545,13.2896544 Z M30.902545,15.7896544 C29.107645,15.7896544 27.652545,17.2447544 27.652545,19.0396544 C27.652545,20.8345544 29.107645,22.2896544 30.902545,22.2896544 C32.697545,22.2896544 34.152545,20.8345544 34.152545,19.0396544 C34.152545,17.2447544 32.697545,15.7896544 30.902545,15.7896544 Z" id="形状结合" fill="#999999"></path>
    </g>
</svg>