<?xml version="1.0" encoding="UTF-8"?>
<svg width="50px" height="50px" viewBox="0 0 50 50" version="1.1" xmlns="http://www.w3.org/2000/svg" xmlns:xlink="http://www.w3.org/1999/xlink">
    <title>xiangmukaigong@2x</title>
    <g id="xiangmukaigong" stroke="none" stroke-width="1" fill="none" fill-rule="evenodd">
        <path d="M37.5592,6 C39.9064,6 41.8092,7.90279 41.8092,10.25 C41.8092,10.8656 41.6755,11.4738 41.4173,12.0325 L38.1474,19.1098 C37.9307,19.579 37.9324,20.1201 38.1522,20.5879 L41.3726,27.4428 C42.3707,29.5673 41.4576,32.0986 39.3332,33.0966 C38.7677,33.3623 38.1507,33.5 37.526,33.5 L10.5,33.5 L10.5,43.25 C10.5,43.9404 9.94036,44.5 9.25,44.5 C8.55964,44.5 8,43.9404 8,43.25 L8,14.25 C8,9.6937 11.6937,6 16.25,6 L37.5592,6 Z M37.5592,8.5 L16.25,8.5 C13.0744,8.5 10.5,11.0744 10.5,14.25 L10.5,14.25 L10.5,31 L37.526,31 C37.7832,31 38.0373,30.9433 38.2701,30.8339 C39.1449,30.4229 39.5209,29.3806 39.1099,28.5059 L39.1099,28.5059 L35.8894,21.651 C35.3557,20.5148 35.3515,19.2008 35.878,18.0613 L35.878,18.0613 L39.1478,10.984 C39.2541,10.7539 39.3092,10.5035 39.3092,10.25 C39.3092,9.2835 38.5257,8.5 37.5592,8.5 L37.5592,8.5 Z M23.3423,12.3896 C23.934,11.7979 24.8094,11.714 25.2976,12.2021 C25.7857,12.6903 25.7018,13.5657 25.1101,14.1574 L25.1101,14.1574 L18.2215,21.046 C17.6298,21.6377 16.7544,21.7216 16.2662,21.2335 C15.7781,20.7453 15.862,19.8699 16.4537,19.2782 L16.4537,19.2782 Z" id="形状结合" fill="#999999"></path>
    </g>
</svg>