<?xml version="1.0" encoding="UTF-8"?>
<svg width="50px" height="50px" viewBox="0 0 50 50" version="1.1" xmlns="http://www.w3.org/2000/svg" xmlns:xlink="http://www.w3.org/1999/xlink">
    <title>xiansuo@2x</title>
    <g id="xiansuo" stroke="none" stroke-width="1" fill="none" fill-rule="evenodd">
        <path d="M13.75,6 C16.2187,6 18.2895,7.70399 18.8503,10 L33.25,10 C37.8063,10 41.5,13.6937 41.5,18.25 C41.5,22.8063 37.8063,26.5 33.25,26.5 L16.25,26.5 C13.0744,26.5 10.5,29.0744 10.5,32.25 C10.5,35.4256 13.0744,38 16.25,38 L30.6497,38 C31.2105,35.704 33.2813,34 35.75,34 C38.6495,34 41,36.3505 41,39.25 C41,42.1495 38.6495,44.5 35.75,44.5 C33.2813,44.5 31.2105,42.796 30.6497,40.5 L16.25,40.5 C11.6937,40.5 8,36.8063 8,32.25 C8,27.6937 11.6937,24 16.25,24 L33.25,24 C36.4256,24 39,21.4256 39,18.25 C39,15.0744 36.4256,12.5 33.25,12.5 L18.8503,12.5 C18.2895,14.796 16.2187,16.5 13.75,16.5 C10.8505,16.5 8.5,14.1495 8.5,11.25 C8.5,8.35051 10.8505,6 13.75,6 Z M35.75,36.5 C34.2312,36.5 33,37.7312 33,39.25 C33,40.7688 34.2312,42 35.75,42 C37.2688,42 38.5,40.7688 38.5,39.25 C38.5,37.7312 37.2688,36.5 35.75,36.5 Z M13.75,8.5 C12.2312,8.5 11,9.73122 11,11.25 C11,12.7688 12.2312,14 13.75,14 C15.2688,14 16.5,12.7688 16.5,11.25 C16.5,9.73122 15.2688,8.5 13.75,8.5 Z" id="形状结合" fill="#999999"></path>
    </g>
</svg>