<?xml version="1.0" encoding="UTF-8"?>
<svg width="50px" height="50px" viewBox="0 0 50 50" version="1.1" xmlns="http://www.w3.org/2000/svg" xmlns:xlink="http://www.w3.org/1999/xlink">
    <title>zhaogongyingshang@2x</title>
    <g id="zhaogongyingshang" stroke="none" stroke-width="1" fill="none" fill-rule="evenodd">
        <path d="M35,22.75 C41.2131559,22.75 46.25,27.7868441 46.25,34 C46.25,40.2131559 41.2131559,45.25 35,45.25 C28.7868441,45.25 23.75,40.2131559 23.75,34 C23.75,27.7868441 28.7868441,22.75 35,22.75 Z M35,25.25 C30.1675559,25.25 26.25,29.1675559 26.25,34 C26.25,38.8324441 30.1675559,42.75 35,42.75 C39.8324441,42.75 43.75,38.8324441 43.75,34 C43.75,29.1675559 39.8324441,25.25 35,25.25 Z M17,30.25 C11.5417498,30.25 7.03359388,34.3179745 6.34197046,39.5874851 L6.322,39.75 L20.8061,39.75 C21.4533087,39.75 21.9856339,40.2418747 22.0496464,40.8721948 L22.0561,41 C22.0561,41.6472087 21.5642253,42.1795339 20.9339052,42.2435464 L20.8061,42.25 L3.75,42.25 L3.75,41 C3.75,34.4518419 8.50008616,29.0130954 14.7424685,27.9415506 C12.3766954,25.9633443 10.8367123,22.8905531 10.7535462,19.4376687 L10.75,19.1429 L10.75,15.8571 C10.75,9.74692122 15.3124048,4.75 21,4.75 C26.5958598,4.75 31.1025329,9.58703014 31.2464538,15.5623313 L31.25,15.8571 L31.25,19.1429 C31.25,19.8332559 30.6903559,20.3929 30,20.3929 C29.3527913,20.3929 28.8204661,19.9010253 28.7564536,19.2707052 L28.75,19.1429 L28.75,15.8571 C28.75,11.0794326 25.2535627,7.25 21,7.25 C16.825207,7.25 13.3797573,10.938915 13.2535798,15.5926679 L13.25,15.8571 L13.25,19.1429 C13.25,23.9205674 16.7464373,27.75 21,27.75 C21.6903559,27.75 22.25,28.3096441 22.25,29 C22.25,29.6903559 21.6903559,30.25 21,30.25 L17,30.25 Z M34.9013,35.8769 L35.8583,36.3389 C35.3578,37.28215 34.7815031,38.1243375 34.1294094,38.8580934 L33.8453,39.1659 L32.9433,38.4949 C33.7023,37.7689 34.3513,36.8999 34.9013,35.8769 Z M32.3383,28.8809 L33.3283,29.3429 C33.0995,30.0205 32.82142,30.66994 32.49406,31.296852 L32.2393,31.7629 L32.2393,39.1329 L31.1833,39.1329 L31.1833,33.3029 C30.9633,33.5669 30.7384111,33.8260111 30.5086333,34.0802333 L30.1603,34.4579 L29.8193,33.3469 C30.9523,32.0709 31.7883,30.5749 32.3383,28.8809 Z M37.9043,35.7889 C38.7060778,36.6982333 39.3514111,37.5032704 39.8248487,38.2117368 L39.9943,38.4729 L39.0483,39.1219 C38.6083,38.3787889 38.0292383,37.5574556 37.3188405,36.6579 L37.0463,36.3169 L37.9043,35.7889 Z M35.6163,29.0129 L35.6163,31.2349 L37.3433,31.2349 L37.3433,29.0129 L38.3883,29.0129 L38.3883,31.2349 L39.7633,31.2349 L39.7633,32.2469 L38.3883,32.2469 L38.3883,34.5789 L40.0713,34.5789 L40.0713,35.5799 L32.9213,35.5799 L32.9213,34.5789 L34.5603,34.5789 L34.5603,32.2469 L33.2293,32.2469 L33.2293,31.2349 L34.5603,31.2349 L34.5603,29.0129 L35.6163,29.0129 Z M37.3433,32.2469 L35.6163,32.2469 L35.6163,34.5789 L37.3433,34.5789 L37.3433,32.2469 Z" id="形状结合" fill="#999999" fill-rule="nonzero"></path>
    </g>
</svg>