<svg t="1627464228713" class="icon" viewBox="0 0 1024 1024" version="1.1" xmlns="http://www.w3.org/2000/svg" p-id="1410" width="200" height="200"><path d="M512 93.090909c231.354182 0 418.909091 187.554909 418.909091 418.909091l-0.069818 7.68C926.743273 747.52 740.794182 930.909091 512 930.909091c-231.354182 0-418.909091-187.554909-418.909091-418.909091l0.069818-7.68C97.256727 276.48 283.205818 93.090909 512 93.090909z m166.842182 247.458909a29.928727 29.928727 0 0 0-39.889455 2.187637L512 469.690182l-126.952727-126.952727a29.928727 29.928727 0 0 0-42.309818 42.309818L469.690182 512l-126.952727 126.952727a29.928727 29.928727 0 0 0 42.309818 42.309818L512 554.309818l126.952727 126.952727a29.928727 29.928727 0 0 0 42.309818-42.309818L554.309818 512l126.952727-126.952727a29.928727 29.928727 0 0 0 0-42.309818z" p-id="1411" fill="#80848A"></path></svg>