<?xml version="1.0" encoding="UTF-8"?>
<svg width="50px" height="50px" viewBox="0 0 50 50" version="1.1" xmlns="http://www.w3.org/2000/svg" xmlns:xlink="http://www.w3.org/1999/xlink">
    <title>address@2x</title>
    <g id="address" stroke="none" stroke-width="1" fill="none" fill-rule="evenodd">
        <path d="M25.5,4 C35.1649831,4 43,11.8350169 43,21.5 C43,24.3994949 41.8278625,27.8542929 40.0660112,31.2702576 L39.7059507,31.9527567 C39.3383725,32.6343859 38.9487588,33.3128775 38.5417691,33.9834782 L38.12916,34.6512727 L37.7060023,35.3127504 L37.2733314,35.9668551 L36.8321827,36.6125305 L36.3835917,37.2487205 L35.9285937,37.8743687 L35.4682243,38.4884189 L35.0035188,39.0898149 L34.5355126,39.6775004 L34.0652412,40.2504193 C33.9867314,40.3446165 33.9081704,40.4381544 33.8295796,40.5310111 L33.3578518,41.0797994 C33.2792286,41.1698428 33.200619,41.259161 33.1220444,41.3477318 L32.6511898,41.8700131 L32.1822116,42.3733027 L31.7161453,42.8565443 L31.2540262,43.3186818 C31.1773929,43.3938874 31.1009671,43.4681696 31.0247705,43.5415064 L30.5705138,43.9700072 C30.1193525,44.3868117 29.6779949,44.767999 29.2511004,45.108816 L28.8291995,45.4360003 C27.5095397,46.4283559 26.3504875,47 25.5,47 C24.6495125,47 23.4904603,46.4283559 22.1708005,45.4360003 L21.7488996,45.108816 C21.3220051,44.767999 20.8806475,44.3868117 20.4294862,43.9700072 L19.9752295,43.5415064 C19.8990329,43.4681696 19.8226071,43.3938874 19.7459737,43.3186818 L19.2838547,42.8565443 L18.8177884,42.3733027 L18.3488102,41.8700131 L17.8779556,41.3477318 L17.40626,40.8075151 C17.249003,40.624571 17.0917784,40.4388137 16.9347588,40.2504193 L16.4644874,39.6775004 L15.9964812,39.0898149 L15.5317757,38.4884189 L15.0714062,37.8743687 L14.6164083,37.2487205 L14.1678173,36.6125305 L13.7266686,35.9668551 L13.2939977,35.3127504 L12.87084,34.6512727 L12.4582309,33.9834782 C12.1190728,33.4246443 11.7919814,32.8603306 11.4796531,32.2932878 L11.112118,31.6117026 C9.25158237,28.0852298 8,24.4961448 8,21.5 C8,11.8350169 15.8350169,4 25.5,4 Z M25.5,7 C17.4918711,7 11,13.4918711 11,21.5 C11,25.1500554 13.5460217,30.7585049 17.484722,36.0922611 C19.255737,38.4905555 21.1639107,40.6243022 22.8639829,42.1269372 C23.6592586,42.829854 24.3764723,43.3648758 24.9602111,43.7011006 C25.153064,43.812181 25.3199338,43.8948652 25.4541842,43.9495772 L25.5,43.966 L25.5458158,43.9495772 C25.6465036,43.9085432 25.7655398,43.8517748 25.9001248,43.7790933 L26.0397889,43.7011006 C26.6235277,43.3648758 27.3407414,42.829854 28.1360171,42.1269372 C29.8360893,40.6243022 31.744263,38.4905555 33.515278,36.0922611 C37.4539783,30.7585049 40,25.1500554 40,21.5 C40,13.4918711 33.5081289,7 25.5,7 Z M25.5,13 C30.1944204,13 34,16.8055796 34,21.5 C34,26.1944204 30.1944204,30 25.5,30 C20.8055796,30 17,26.1944204 17,21.5 C17,16.8055796 20.8055796,13 25.5,13 Z M25.5,16 C22.4624339,16 20,18.4624339 20,21.5 C20,24.5375661 22.4624339,27 25.5,27 C28.5375661,27 31,24.5375661 31,21.5 C31,18.4624339 28.5375661,16 25.5,16 Z" id="å½¢çŠ¶ç»“åˆ" fill="#999999" fill-rule="nonzero"></path>
    </g>
</svg>