<?xml version="1.0" encoding="UTF-8"?>
<svg width="50px" height="50px" viewBox="0 0 50 50" version="1.1" xmlns="http://www.w3.org/2000/svg" xmlns:xlink="http://www.w3.org/1999/xlink">
    <title>agreement@2x</title>
    <g id="agreement" stroke="none" stroke-width="1" fill="none" fill-rule="evenodd">
        <path d="M38,5 C41.3137085,5 44,7.6862915 44,11 L44,39 C44,42.3137085 41.3137085,45 38,45 L12,45 C8.6862915,45 6,42.3137085 6,39 L6,11 C6,7.6862915 8.6862915,5 12,5 L38,5 Z M38,8 L35,8 L35,20.379145 C35,20.9314297 34.5522847,21.379145 34,21.379145 C33.8442287,21.379145 33.6906113,21.3427545 33.5513939,21.2728746 L29.4701594,19.2243057 C29.1888485,19.0831022 28.8574728,19.0825877 28.5757247,19.222917 L24.4458287,21.2798808 C23.9514685,21.5261052 23.351106,21.3249514 23.1048817,20.8305912 C23.0359021,20.6920965 23,20.5394847 23,20.3847625 L23,8 L12,8 C10.4023191,8 9.09633912,9.24891996 9.00509269,10.8237272 L9,11 L9,39 C9,40.5976809 10.24892,41.9036609 11.8237272,41.9949073 L12,42 L38,42 C39.5976809,42 40.9036609,40.75108 40.9949073,39.1762728 L41,39 L41,11 C41,9.40231912 39.75108,8.09633912 38.1762728,8.00509269 L38,8 Z M32,8 L26,8 L26,17.154 L27.2382387,16.5375621 C28.294794,16.011327 29.5258215,15.9802461 30.602745,16.4438092 L30.8159777,16.543117 L32,17.138 L32,8 Z" id="形状结合" fill="#999999" fill-rule="nonzero"></path>
    </g>
</svg>