<?xml version="1.0" encoding="UTF-8"?>
<svg width="50px" height="50px" viewBox="0 0 50 50" version="1.1" xmlns="http://www.w3.org/2000/svg" xmlns:xlink="http://www.w3.org/1999/xlink">
    <title>card@2x</title>
    <defs>
        <linearGradient x1="50%" y1="-0.666666667%" x2="50%" y2="100.666667%" id="linearGradient-1">
            <stop stop-color="#FAFAFA" offset="0%"></stop>
            <stop stop-color="#EDEFF1" offset="100%"></stop>
        </linearGradient>
        <linearGradient x1="50.000166%" y1="0%" x2="50.000166%" y2="100%" id="linearGradient-2">
            <stop stop-color="#9498A4" offset="0%"></stop>
            <stop stop-color="#9498A4" offset="100%"></stop>
        </linearGradient>
        <linearGradient x1="50.0003778%" y1="0%" x2="50.0003778%" y2="100%" id="linearGradient-3">
            <stop stop-color="#9498A4" offset="0%"></stop>
            <stop stop-color="#9498A4" offset="100%"></stop>
        </linearGradient>
    </defs>
    <g id="card" stroke="none" stroke-width="1" fill="none" fill-rule="evenodd">
        <rect id="矩形" stroke="#BABDC2" stroke-width="0.5" fill="url(#linearGradient-1)" fill-rule="nonzero" x="0.25" y="6.25" width="49.5" height="37.5" rx="6"></rect>
        <path d="M7.5,34.1666285 C7.5,34.62959 7.86455462,35 8.32025536,35 L24.6797745,35 C25.1354553,35 25.5,34.62959 25.5,34.1666285 C25.5,34.1666285 25.3633456,31.2963076 23.1303601,30.1851795 C21.7176998,29.4907881 22.2646164,29.8148714 20.5329296,29.1203781 C18.8012429,28.4258849 18.39118,27.9166985 18.39118,27.9166985 L18.4823162,26.9907754 C18.4823162,26.9907754 20.3962752,26.4351604 20.715202,24.3055577 C21.3076368,24.444436 21.4899092,23.6573911 21.5354275,23.1482047 C21.5810453,22.6389165 21.9000717,21.0648268 21.1708828,21.2037051 C21.3076368,20.1389037 21.4442913,19.2129806 21.3531551,18.7036924 C21.262019,17.8704227 21.4899092,17.7315444 20.715202,17.0833779 C20.5329296,16.8981729 20.8974743,16.1111281 20.7608199,15.8796982 C20.5329296,15.4167367 18.9836149,15.6018398 18.7557246,15.5092882 C18.1177715,15.2315317 17.3885826,15.0463267 16.613975,15 C13.3328739,15.1388783 12.0569676,16.9444996 11.8746952,18.7036924 C11.8290774,19.2129806 11.9202135,20.1389037 12.1025855,21.2037051 C11.3733965,21.0648268 11.6924229,22.6389165 11.7379412,23.1482047 C11.7835591,23.6573911 11.9658314,24.4907627 12.5582663,24.3055577 C12.8771931,26.4351604 14.4266074,26.9907754 14.4266074,26.9907754 L14.5177436,27.8703718 C14.5177436,27.8703718 14.1075811,28.3333333 12.3759939,29.0740514 C10.6443072,29.7685447 11.1911242,29.4907881 9.77848379,30.1851795 C7.63670425,31.2499809 7.5,34.1666285 7.5,34.1666285 Z" id="路径" fill="url(#linearGradient-2)" fill-rule="nonzero"></path>
        <path d="M31,17 L41,17 C41.8284271,17 42.5,17.6715729 42.5,18.5 C42.5,19.3284271 41.8284271,20 41,20 L31,20 C30.1715729,20 29.5,19.3284271 29.5,18.5 C29.5,17.6715729 30.1715729,17 31,17 Z M31,24 L41,24 C41.8284271,24 42.5,24.6715729 42.5,25.5 C42.5,26.3284271 41.8284271,27 41,27 L31,27 C30.1715729,27 29.5,26.3284271 29.5,25.5 C29.5,24.6715729 30.1715729,24 31,24 Z M31,31 L37,31 C37.8284271,31 38.5,31.6715729 38.5,32.5 C38.5,33.3284271 37.8284271,34 37,34 L31,34 C30.1715729,34 29.5,33.3284271 29.5,32.5 C29.5,31.6715729 30.1715729,31 31,31 Z" id="形状结合" fill="url(#linearGradient-3)"></path>
    </g>
</svg>