<?xml version="1.0" encoding="UTF-8"?>
<svg width="50px" height="50px" viewBox="0 0 50 50" version="1.1" xmlns="http://www.w3.org/2000/svg" xmlns:xlink="http://www.w3.org/1999/xlink">
    <title>check-fill@2x</title>
    <g id="check-fill" stroke="none" stroke-width="1" fill="none" fill-rule="evenodd">
        <path d="M50,0 L50,40 C50,45.5228 45.5228,50 40,50 L0,50 L50,0 Z M23.7989,36.2593 C23.4985,36.6422 23.5301,37.1887 23.8725,37.5344 L28.9607,42.6718 C29.7433,43.462 31.0202,43.462 31.8028,42.6718 L45.0244,29.3223 C45.2807,29.0635 45.2807,28.6464 45.0244,28.3875 C44.7831,28.1439 44.3962,28.124 44.1311,28.3414 L31.5339,38.6756 C30.8502,39.2365 29.8795,39.2818 29.1465,38.7872 L25.0983,36.055 C24.6786,35.7717 24.1114,35.8609 23.7989,36.2593 Z" id="形状" fill="#999999"></path>
    </g>
</svg>