<?xml version="1.0" encoding="UTF-8"?>
<svg width="50px" height="50px" viewBox="0 0 50 50" version="1.1" xmlns="http://www.w3.org/2000/svg" xmlns:xlink="http://www.w3.org/1999/xlink">
    <title>clock@2x</title>
    <g id="clock" stroke="none" stroke-width="1" fill="none" fill-rule="evenodd">
        <path d="M25,4.5 C36.3218271,4.5 45.5,13.6781729 45.5,25 C45.5,36.3218271 36.3218271,45.5 25,45.5 C13.6781729,45.5 4.5,36.3218271 4.5,25 C4.5,13.6781729 13.6781729,4.5 25,4.5 Z M25,7.5 C15.3350271,7.5 7.5,15.3350271 7.5,25 C7.5,34.6649729 15.3350271,42.5 25,42.5 C34.6649729,42.5 42.5,34.6649729 42.5,25 C42.5,15.3350271 34.6649729,7.5 25,7.5 Z M23.5,14 C24.3284,14 25,14.6716 25,15.5 L25,25 L32.5,25 C33.3284,25 34,25.6716 34,26.5 C34,27.3284 33.3284,28 32.5,28 L23.5,28 C22.6716,28 22,27.3284 22,26.5 L22,15.5 C22,14.6716 22.6716,14 23.5,14 Z" id="形状结合" fill="#979797" fill-rule="nonzero"></path>
    </g>
</svg>