<?xml version="1.0" encoding="UTF-8"?>
<svg width="50px" height="50px" viewBox="0 0 50 50" version="1.1" xmlns="http://www.w3.org/2000/svg" xmlns:xlink="http://www.w3.org/1999/xlink">
    <title>clock备份@2x</title>
    <g id="clock备份" stroke="none" stroke-width="1" fill="none" fill-rule="evenodd">
        <path d="M28.2699725,25.3236825 L41.0371725,38.0908825 C41.8507725,38.9044825 41.8507725,40.2235825 41.0371725,41.0371825 C40.2235725,41.8507825 38.9044725,41.8507825 38.0908725,41.0371825 L25.3236725,28.2699825 L12.5564725,41.0371825 C11.7428725,41.8507825 10.4237725,41.8507825 9.6101925,41.0371825 C8.7966025,40.2235825 8.7966025,38.9044825 9.6101925,38.0908825 L22.3773725,25.3236825 L9.6101925,12.5564825 C8.7966025,11.7428825 8.7966025,10.4237825 9.6101925,9.6101925 C10.4237725,8.7966025 11.7428725,8.7966025 12.5564725,9.6101925 L25.3236725,22.3773825 L38.0908725,9.6101925 C38.9044725,8.7966025 40.2235725,8.7966025 41.0371725,9.6101925 C41.8507725,10.4237825 41.8507725,11.7428825 41.0371725,12.5564825 L28.2699725,25.3236825 Z" id="路径" fill="#999999" fill-rule="nonzero"></path>
    </g>
</svg>