<?xml version="1.0" encoding="UTF-8"?>
<svg width="50px" height="50px" viewBox="0 0 50 50" version="1.1" xmlns="http://www.w3.org/2000/svg" xmlns:xlink="http://www.w3.org/1999/xlink">
    <title>edit@2x</title>
    <g id="edit" stroke="none" stroke-width="1" fill="none" fill-rule="evenodd">
        <path d="M28.6535596,3.5 C29.4819868,3.5 30.1535596,4.17157288 30.1535596,5 C30.1535596,5.77969612 29.5586715,6.42044868 28.7980196,6.49313342 L28.6535596,6.5 L10.7142857,6.5 C8.45732985,6.5 6.61475618,8.27418107 6.50515756,10.5039504 L6.5,10.7142857 L6.5,39.2857143 C6.5,41.5426701 8.27418107,43.3852438 10.5039504,43.4948424 L10.7142857,43.5 L39.2857143,43.5 C41.5426701,43.5 43.3852438,41.7258189 43.4948424,39.4960496 L43.5,39.2857143 L43.5,21.2132427 C43.5,20.3848155 44.1715729,19.7132427 45,19.7132427 C45.7796961,19.7132427 46.4204487,20.3081307 46.4931334,21.0687826 L46.5,21.2132427 L46.5,39.2857143 C46.5,43.1887412 43.4005435,46.3678513 39.5286898,46.4959853 L39.2857143,46.5 L10.7142857,46.5 C6.81125879,46.5 3.63214872,43.4005435 3.50401471,39.5286898 L3.5,39.2857143 L3.5,10.7142857 C3.5,6.81125879 6.59945646,3.63214872 10.4713102,3.50401471 L10.7142857,3.5 L28.6535596,3.5 Z M45.8492424,4.6507576 C46.4350288,5.23654403 46.4350288,6.1862915 45.8492424,6.77207794 L21.8076118,30.8137085 C21.2218254,31.3994949 20.2720779,31.3994949 19.6862915,30.8137085 C19.1005051,30.2279221 19.1005051,29.2781746 19.6862915,28.6923882 L43.7279221,4.6507576 C44.3137085,4.06497116 45.263456,4.06497116 45.8492424,4.6507576 Z" id="形状结合" fill="#999999" fill-rule="nonzero"></path>
    </g>
</svg>