<?xml version="1.0" encoding="UTF-8"?>
<svg width="50px" height="50px" viewBox="0 0 50 50" version="1.1" xmlns="http://www.w3.org/2000/svg" xmlns:xlink="http://www.w3.org/1999/xlink">
    <title>flag@2x</title>
    <g id="flag" stroke="none" stroke-width="1" fill="none" fill-rule="evenodd">
        <path d="M37,6 C40.3137085,6 43,8.70190843 43,12.0348814 L43,42.9883729 C43,44.0993639 42.1045695,45 41,45 C40.6915033,45 40.3871883,44.9282199 40.1108546,44.7902733 L25.3143324,37.403809 C25.0323797,37.2630574 24.7009946,37.2640467 24.4198776,37.4064792 L9.89976415,44.7633301 C8.91328643,45.263145 7.71075009,44.8639778 7.21382407,43.8717651 C7.0732324,43.5910456 7,43.2810947 7,42.9667701 L7,12.0348814 C7,8.70190843 9.6862915,6 13,6 L37,6 Z M37,9 L13,9 C11.4023191,9 10.0963391,10.2426678 10.0050927,11.8095915 L10,11.9849818 L10,40.9691552 L23.0702314,34.4178037 C24.1244202,33.8894274 25.3553326,33.8529633 26.4343661,34.3093819 L26.6480504,34.4072376 L40,41 L40,11.9849818 C40,10.395299 38.75108,9.09585684 37.1762728,9.0050672 L37,9 Z M32.5,17 C33.3284271,17 34,17.6715729 34,18.5 C34,19.3284271 33.3284271,20 32.5,20 L17.5,20 C16.6715729,20 16,19.3284271 16,18.5 C16,17.6715729 16.6715729,17 17.5,17 L32.5,17 Z" id="形状结合" fill="#999999" fill-rule="nonzero"></path>
    </g>
</svg>