<svg width="50" height="50" viewBox="0 0 50 50" fill="none" xmlns="http://www.w3.org/2000/svg">
<path fill-rule="evenodd" clip-rule="evenodd" d="M24.697 8.11642C24.876 7.98007 25.124 7.98007 25.303 8.11642L26.2119 6.92319L25.303 8.11642L32.591 13.6682L36.841 16.9057L40.303 19.5429L41.2119 18.3497L40.303 19.5429C40.4271 19.6375 40.5 19.7846 40.5 19.9406V35.525C40.5 36.3534 41.1716 37.025 42 37.025C42.8284 37.025 43.5 36.3534 43.5 35.525V19.9406C43.5 18.8482 42.9899 17.8184 42.1209 17.1564L38.659 14.5192L34.409 11.2817L27.1209 5.72996C25.868 4.77556 24.132 4.77556 22.8791 5.72996L7.8791 17.1564C7.01008 17.8184 6.5 18.8482 6.5 19.9406V37C6.5 41.1421 9.85786 44.5 14 44.5H42C42.8284 44.5 43.5 43.8284 43.5 43C43.5 42.1715 42.8284 41.5 42 41.5H14C11.5147 41.5 9.5 39.4853 9.5 37V19.9406C9.5 19.7846 9.57287 19.6375 9.69701 19.5429L24.697 8.11642ZM20.5 32C19.6716 32 19 32.6715 19 33.5C19 34.3284 19.6716 35 20.5 35H29.5C30.3284 35 31 34.3284 31 33.5C31 32.6715 30.3284 32 29.5 32H20.5Z" fill="white"/>
</svg>
