<?xml version="1.0" encoding="UTF-8"?>
<svg width="50px" height="50px" viewBox="0 0 50 50" version="1.1" xmlns="http://www.w3.org/2000/svg" xmlns:xlink="http://www.w3.org/1999/xlink">
    <title>money@2x</title>
    <g id="money" stroke="none" stroke-width="1" fill="none" fill-rule="evenodd">
        <path d="M25,4.5 C13.6781729,4.5 4.5,13.6781729 4.5,25 C4.5,36.3218271 13.6781729,45.5 25,45.5 C36.3218271,45.5 45.5,36.3218271 45.5,25 C45.5,13.6781729 36.3218271,4.5 25,4.5 Z M25,7.5 C34.6649729,7.5 42.5,15.3350271 42.5,25 C42.5,34.6649729 34.6649729,42.5 25,42.5 C15.3350271,42.5 7.5,34.6649729 7.5,25 C7.5,15.3350271 15.3350271,7.5 25,7.5 Z M31.6615836,16 L29.1755836,16 C29.0501836,16 28.9331836,16.0731 28.8788836,16.189 L25.0934836,23.9248 L24.9514836,23.9248 L21.1658836,16.189 C21.1074836,16.0731 20.9946836,16 20.8693836,16 L18.3330836,16 C18.2787836,16 18.2243836,16.013 18.1743836,16.0429 C18.0113836,16.1331 17.9529836,16.3437 18.0406836,16.5114 L22.6951836,25.3128 L20.1298836,25.3128 C19.9458836,25.3128 19.7954836,25.4675 19.7954836,25.6567 L19.7954836,26.9418 C19.7954836,27.1308 19.9458836,27.2854 20.1298836,27.2854 L23.5433836,27.2854 L23.5433836,29.0647 L20.1298836,29.0647 C19.9458836,29.0647 19.7954836,29.2193 19.7954836,29.4086 L19.7954836,30.6934 C19.7954836,30.8826 19.9458836,31.0373 20.1298836,31.0373 L23.5433836,31.0373 L23.5433836,33.964 C23.5433836,34.153 23.6937836,34.3077 23.8775836,34.3077 L26.1463836,34.3077 C26.3301836,34.3077 26.4805836,34.153 26.4805836,33.964 L26.4805836,31.0373 L29.9067836,31.0373 C30.0904836,31.0373 30.2408836,30.8826 30.2408836,30.6934 L30.2408836,29.4086 C30.2408836,29.2193 30.0904836,29.0647 29.9067836,29.0647 L26.4805836,29.0647 L26.4805836,27.2813 L29.9067836,27.2813 C30.0904836,27.2813 30.2408836,27.1264 30.2408836,26.9374 L30.2408836,25.6523 C30.2408836,25.4633 30.0904836,25.3086 29.9067836,25.3086 L27.3163836,25.3086 L31.9582836,16.5072 C31.9832836,16.4555 31.9999836,16.3996 31.9999836,16.3437 C31.9956836,16.1547 31.8452836,16 31.6615836,16 Z" id="形状结合" fill="#979797" fill-rule="nonzero"></path>
    </g>
</svg>