<?xml version="1.0" encoding="UTF-8"?>
<svg width="50px" height="50px" viewBox="0 0 50 50" version="1.1" xmlns="http://www.w3.org/2000/svg" xmlns:xlink="http://www.w3.org/1999/xlink">
    <title>management@2x</title>
    <g id="management" stroke="none" stroke-width="1" fill="none" fill-rule="evenodd">
        <path d="M32.8224013,6 L33.0893818,6.00519582 C35.396031,6.09504816 37.5063679,7.34484926 38.6729013,9.33175 L38.6729013,9.33175 L46.0087013,21.8265 C47.2294013,23.9055 47.2294013,26.4725 46.0088013,28.5516 L46.0088013,28.5516 L38.6729013,41.0469 L38.5341553,41.2728714 C37.2961275,43.2025229 35.1430457,44.3788 32.8224013,44.3788 L32.8224013,44.3788 L18.1019013,44.3788 L17.83491,44.3736039 C15.5281715,44.2837466 13.4178346,43.0338778 12.2513013,41.0469 L12.2513013,41.0469 L4.91543125,28.5516 L4.78000978,28.3095941 C3.69663918,26.2757604 3.74180856,23.8255385 4.91549125,21.8265 L4.91549125,21.8265 L12.2513013,9.33175 L12.3900575,9.10578743 C13.6281678,7.17621218 15.7811568,6 18.1018013,6 L18.1018013,6 L32.8224013,6 Z M32.8224013,9.49738 L18.1018013,9.49738 L17.8991021,9.50364061 C16.8238109,9.57017052 15.8477777,10.1629412 15.3034013,11.09 L15.3034013,11.09 L7.96753125,23.5848 C7.38506125,24.5769 7.38505125,25.8013 7.96751125,26.7934 L7.96751125,26.7934 L15.3034013,39.2887 C15.8818013,40.2738 16.9475013,40.8814 18.1019013,40.8814 L18.1019013,40.8814 L32.8224013,40.8814 C33.9767013,40.8814 35.0425013,40.2738 35.6208013,39.2887 L35.6208013,39.2887 L42.9567013,26.7934 L43.0590938,26.6047724 C43.5369259,25.6491574 43.502795,24.5148937 42.9567013,23.5848 L42.9567013,23.5848 L35.6209013,11.09 L35.5138533,10.9201408 C34.9168179,10.0356178 33.9088954,9.49738 32.8224013,9.49738 L32.8224013,9.49738 Z M25.2434013,17.252 L25.4909808,17.2558134 C29.6838927,17.3851506 33.0473013,20.7881538 33.0473013,24.9729 L33.0473013,24.9729 L33.043441,25.2181355 C32.9125168,29.3711764 29.4678686,32.6938 25.2434013,32.6938 L25.2434013,32.6938 L24.9958162,32.6899865 C20.8028136,32.5606457 17.4395013,29.1575481 17.4395013,24.9729 L17.4395013,24.9729 L17.4433614,24.7276589 C17.5742819,20.5745274 21.0188359,17.252 25.2434013,17.252 L25.2434013,17.252 Z M25.2434013,20.7493 L25.0361381,20.7541771 C22.7699658,20.8610657 20.9701013,22.7114294 20.9701013,24.9729 L20.9701013,24.9729 L20.9750224,25.1773186 C21.0828806,27.4126502 22.9501924,29.1965 25.2434013,29.1965 L25.2434013,29.1965 L25.4506558,29.1916229 C27.7167367,29.0847343 29.5166013,27.2343706 29.5166013,24.9729 L29.5166013,24.9729 L29.5116801,24.7684814 C29.403822,22.5331498 27.536513,20.7493 25.2434013,20.7493 L25.2434013,20.7493 Z" id="形状结合" fill="#999999"></path>
    </g>
</svg>