<?xml version="1.0" encoding="UTF-8"?>
<svg width="50px" height="50px" viewBox="0 0 50 50" version="1.1" xmlns="http://www.w3.org/2000/svg" xmlns:xlink="http://www.w3.org/1999/xlink">
    <title>plus@2x</title>
    <g id="plus" stroke="none" stroke-width="1" fill="none" fill-rule="evenodd">
        <path d="M27.1875,11.9532 C27.1875,10.8745 26.3131,10 25.2344,10 C24.1557,10 23.2812,10.8745 23.2812,11.9532 L23.2812,23.2813 L11.9531,23.2813 C10.8744,23.2813 10,24.1557 10,25.2344 C10,26.3131 10.8744,27.1875 11.9531,27.1875 L23.2812,27.1875 L23.2812,38.5157 C23.2812,39.5944 24.1557,40.4688 25.2344,40.4688 C26.3131,40.4688 27.1875,39.5944 27.1875,38.5157 L27.1875,27.1876 L38.5156,27.1876 C39.5943,27.1876 40.4688,26.3131 40.4688,25.2344 C40.4688,24.1557 39.5943,23.2813 38.5156,23.2813 L27.1875,23.2813 L27.1875,11.9532 Z" id="路径" fill="#999999"></path>
    </g>
</svg>