<?xml version="1.0" encoding="UTF-8"?>
<svg width="50px" height="50px" viewBox="0 0 50 50" version="1.1" xmlns="http://www.w3.org/2000/svg" xmlns:xlink="http://www.w3.org/1999/xlink">
    <title>record-strong@2x</title>
    <g id="record-strong" stroke="none" stroke-width="1" fill="none" fill-rule="evenodd">
        <path d="M38,5 C41.3137085,5 44,7.6862915 44,11 L44,39 C44,42.3137085 41.3137085,45 38,45 L12,45 C8.6862915,45 6,42.3137085 6,39 L6,11 C6,7.6862915 8.6862915,5 12,5 L38,5 Z M38,8 L12,8 C10.4023191,8 9.09633912,9.24891996 9.00509269,10.8237272 L9,11 L9,39 C9,40.5976809 10.24892,41.9036609 11.8237272,41.9949073 L12,42 L38,42 C39.5976809,42 40.9036609,40.75108 40.9949073,39.1762728 L41,39 L41,11 C41,9.40231912 39.75108,8.09633912 38.1762728,8.00509269 L38,8 Z M25.5,30 C26.3284271,30 27,30.6715729 27,31.5 C27,32.3284271 26.3284271,33 25.5,33 L16.5,33 C15.6715729,33 15,32.3284271 15,31.5 C15,30.6715729 15.6715729,30 16.5,30 L25.5,30 Z M33.5,23 C34.3284271,23 35,23.6715729 35,24.5 C35,25.3284271 34.3284271,26 33.5,26 L16.5,26 C15.6715729,26 15,25.3284271 15,24.5 C15,23.6715729 15.6715729,23 16.5,23 L33.5,23 Z M33.5,16 C34.3284271,16 35,16.6715729 35,17.5 C35,18.3284271 34.3284271,19 33.5,19 L16.5,19 C15.6715729,19 15,18.3284271 15,17.5 C15,16.6715729 15.6715729,16 16.5,16 L33.5,16 Z" id="形状结合" fill="#999999"></path>
    </g>
</svg>