<?xml version="1.0" encoding="UTF-8"?>
<svg width="50px" height="50px" viewBox="0 0 50 50" version="1.1" xmlns="http://www.w3.org/2000/svg" xmlns:xlink="http://www.w3.org/1999/xlink">
    <title>resource@2x</title>
    <g id="resource" stroke="none" stroke-width="1" fill="none" fill-rule="evenodd">
        <path d="M40,4 C43.3137085,4 46,6.6862915 46,10 L46,40 C46,43.3137085 43.3137085,46 40,46 L10,46 C6.6862915,46 4,43.3137085 4,40 L4,10 C4,6.6862915 6.6862915,4 10,4 L40,4 Z M16.5,8.5 C14.0147186,8.5 12,10.5147186 12,13 C12,15.4852814 14.0147186,17.5 16.5,17.5 C18.4589202,17.5 20.1254925,16.2483101 20.7435553,14.5010919 L20.7435553,14.5010919 L31,14.5 C32.9587282,14.6155109 34.9142857,16.5857267 35,19.5 C34.9142857,21.4852814 32.8420037,23.5 30,23.5 L30,23.5 L20,23.5 L19.7438506,23.5035723 C15.3247007,23.6271691 12,26.9454518 12,31.5 C12,35.0609173 15.319688,38.3680175 19,38.5 L19,38.5 L29.2564447,38.5010919 C29.8745075,40.2483101 31.5410798,41.5 33.5,41.5 C35.9852814,41.5 38,39.4852814 38,37 C38,34.5147186 35.9852814,32.5 33.5,32.5 C31.5407041,32.5 29.8738682,33.7521701 29.2560892,35.4999135 L29.2560892,35.4999135 L20,35.5 L19.7512635,35.4948235 C17.0378158,35.3815126 15.0831933,33.4268907 15,31.5 C15.0857143,28.5857267 17.0412718,26.6155109 19,26.5 L19,26.5 L31,26.5 C34.680312,26.3680175 38,23.0609173 38,19.5 C38,14.8578644 34.5461966,11.5 30,11.5 L30,11.5 L20.7439108,11.4999135 C20.1261318,9.7521701 18.4592959,8.5 16.5,8.5 Z M33.5,35.5 C34.3284271,35.5 35,36.1715729 35,37 C35,37.8284271 34.3284271,38.5 33.5,38.5 C32.6715729,38.5 32,37.8284271 32,37 C32,36.1715729 32.6715729,35.5 33.5,35.5 Z M16.5,11.5 C17.3284271,11.5 18,12.1715729 18,13 C18,13.8284271 17.3284271,14.5 16.5,14.5 C15.6715729,14.5 15,13.8284271 15,13 C15,12.1715729 15.6715729,11.5 16.5,11.5 Z" id="形状结合" fill="#999999"></path>
    </g>
</svg>