<?xml version="1.0" encoding="UTF-8"?>
<svg width="50px" height="50px" viewBox="0 0 50 50" version="1.1" xmlns="http://www.w3.org/2000/svg" xmlns:xlink="http://www.w3.org/1999/xlink">
    <title>search@2x</title>
    <g id="search" stroke="none" stroke-width="1" fill="none" fill-rule="evenodd">
        <path d="M23.5,6 C32.6126984,6 40,13.3873016 40,22.5 C40,26.845867 38.319863,30.799317 35.5737056,33.7462333 L42.7279221,40.8994949 C43.5089706,41.6805435 43.5089706,42.9468735 42.7279221,43.7279221 C41.9468735,44.5089706 40.6805435,44.5089706 39.8994949,43.7279221 L32.5022466,36.3301389 C29.9134531,38.0186696 26.8213276,39 23.5,39 C14.3873016,39 7,31.6126984 7,22.5 C7,13.3873016 14.3873016,6 23.5,6 Z M23.5,10 C16.5964406,10 11,15.5964406 11,22.5 C11,29.4035594 16.5964406,35 23.5,35 C30.4035594,35 36,29.4035594 36,22.5 C36,15.5964406 30.4035594,10 23.5,10 Z" id="形状结合" fill="#999999" fill-rule="nonzero"></path>
    </g>
</svg>