<?xml version="1.0" encoding="UTF-8"?>
<svg width="50px" height="50px" viewBox="0 0 50 50" version="1.1" xmlns="http://www.w3.org/2000/svg" xmlns:xlink="http://www.w3.org/1999/xlink">
    <title>telephone-stroke@2x</title>
    <g id="telephone-stroke" stroke="none" stroke-width="1" fill="none" fill-rule="evenodd">
        <path d="M42.3279289,32.5695425 L41.7882289,31.8759425 L41.7683289,31.8549425 C41.5921289,31.6700425 41.0922289,31.1614425 40.2746289,30.4591425 C39.2969289,29.6180425 37.5525289,28.3773425 37.4149289,28.2855425 L34.9745289,26.8116425 C34.5266289,26.5870425 34.0515289,26.5399425 33.7314289,26.5399425 C33.3840289,26.5399425 33.0416289,26.5957425 32.7426289,26.7012425 C31.6868289,27.0696425 30.7017289,28.7334425 30.4275289,29.2358425 C30.3009289,29.4678425 30.1620289,29.7458425 30.0429289,29.9902425 L30.0044289,30.0671425 C29.8556289,30.3636425 29.6893289,30.6961425 29.5131289,31.0199425 C29.3394289,31.3325425 28.9673289,31.6502425 28.5900289,31.6502425 C28.4735289,31.6502425 28.3643289,31.6216425 28.2589289,31.5621425 C26.6236289,30.6229425 24.6870289,29.4071425 22.7119289,27.5039425 C20.4837289,25.3550425 19.1611289,23.6566425 18.4291289,21.9991425 C18.3845289,21.8856425 18.3894289,21.3713425 18.6797289,21.2280425 C19.0805289,21.0283425 19.4068289,20.8974425 19.6946289,20.7808425 L19.7616289,20.7516425 C20.1760289,20.5835425 20.5692289,20.4247425 21.0171289,20.1518425 C21.2106289,20.0271425 21.3136289,19.9700425 21.4017289,19.9203425 L21.4464289,19.8937425 C21.6076289,19.8062425 21.7590289,19.7225425 22.2230289,19.4099425 C22.2429289,19.3956425 22.3272289,19.3261425 22.4166289,19.2498425 L22.7143289,18.9805425 C23.4922289,18.2306425 23.7478289,17.1270425 23.3644289,16.1717425 L23.2305289,15.7853425 C23.2280289,15.7753425 22.7342289,14.6265425 21.9426289,13.2612425 C21.5580289,12.6005425 20.9749289,11.7221425 20.4588289,11.0249425 C19.0643289,9.14467246 17.7740289,8.54356246 17.7678289,8.54116246 C17.7542289,8.53368246 17.4192289,8.35565246 17.2133289,8.26200246 C16.3721289,7.90219246 15.4217289,7.91517246 14.5731289,8.28741246 C13.3052289,8.76383246 12.5273289,9.41390246 11.6998289,10.1050425 L11.5186289,10.2600425 C9.06210891,12.3108425 7.73152891,14.9863425 8.04538891,17.2461425 C8.51625891,20.6635425 12.4640289,27.6391425 17.5879289,32.5770425 C22.7093289,37.5111425 29.9212289,41.3038425 33.4435289,41.7517425 C33.7103289,41.7864425 33.9845289,41.8038425 34.2586289,41.8038425 C36.8032289,41.8038425 38.7883289,40.2517425 40.2312289,38.8994425 C40.9507289,38.2244425 41.9011289,37.1115425 42.4072289,36.0099425 C42.8539289,35.0422425 43.0673289,33.6328425 42.3279289,32.5695425 Z M16.0569289,23.0418425 C16.9353289,25.0287425 18.4340289,26.9815425 20.9129289,29.3686425 C23.0790289,31.4591425 25.1894289,32.7879425 26.9698289,33.8114425 C27.4809289,34.1029425 28.0280289,34.2505425 28.5913289,34.2505425 C30.0404289,34.2505425 31.2363289,33.2581425 31.7823289,32.2742425 C31.9870289,31.9007425 32.1681289,31.5372425 32.3666289,31.1378425 L32.4485289,30.9691425 C32.5403289,30.7891425 32.6234289,30.6216425 32.6991289,30.4789425 C33.1097289,29.7383425 33.5006289,29.2904425 33.6706289,29.1366425 C33.7177289,29.1341425 33.7847289,29.1354425 33.8232289,29.1391425 L35.9906289,30.4493425 L36.0265289,30.4740425 C36.5525289,30.8499425 37.8540289,31.7941425 38.5836289,32.4231425 C39.2199289,32.9690425 39.6306289,33.3747425 39.7646289,33.5062425 C39.7882289,33.5309425 39.8031289,33.5471425 39.8180289,33.5570425 L40.2149289,34.0657425 C40.2435289,34.1724425 40.2149289,34.5719425 40.0537289,34.9255425 C39.7026289,35.6873425 38.9768289,36.5235425 38.4607289,37.0074425 C36.8057289,38.5557425 35.5588289,39.2144425 34.2884289,39.2144425 C34.1209289,39.2144425 33.9471289,39.2033425 33.7722289,39.1797425 C31.0800289,38.8385425 24.3048289,35.4502425 19.3843289,30.7097425 C14.4800289,25.9828425 10.9703289,19.4756425 10.6129289,16.8919425 C10.4244289,15.5296425 11.4318289,13.7084425 13.1786289,12.2493425 L13.3660289,12.0949425 C14.1252289,11.4566425 14.6277289,11.0354425 15.5470289,10.6880425 C15.7058289,10.6210425 15.8336289,10.5869425 15.9403289,10.5869425 C16.0160289,10.5869425 16.0966289,10.6030425 16.1661289,10.6322425 C16.2579289,10.6756425 16.4118289,10.7556425 16.5060289,10.8064425 L16.5879289,10.8480425 C16.5966289,10.8524425 17.4242289,11.2853425 18.3745289,12.5682425 C18.8484289,13.2034425 19.3670289,13.9862425 19.6995289,14.5594425 C20.0642289,15.1922425 20.4278289,15.8919425 20.7788289,16.6400425 C20.7925289,16.6680425 20.8037289,16.6922425 20.8136289,16.7114425 L20.9277289,17.0544425 C20.9364289,17.0749425 20.9389289,17.0861425 20.9414289,17.0861425 C20.9364289,17.0923425 20.9228289,17.1065425 20.8992289,17.1295425 L20.8235289,17.2045425 C20.7913289,17.2350425 20.7565289,17.2678425 20.7367289,17.2895425 C20.4079289,17.5066425 20.2950289,17.5686425 20.1784289,17.6363425 C20.0642289,17.6983425 19.9253289,17.7747425 19.6498289,17.9489425 C19.3943289,18.1053425 19.1374289,18.2095425 18.7727289,18.3565425 C18.4117289,18.5016425 18.0172289,18.6642425 17.5308289,18.9042425 C15.7840289,19.7677425 15.5507289,21.8998425 16.0569289,23.0418425 Z" id="形状" stroke="#999999" stroke-width="0.3" fill="#999999" fill-rule="nonzero"></path>
    </g>
</svg>