<?xml version="1.0" encoding="UTF-8"?>
<svg width="50px" height="50px" viewBox="0 0 50 50" version="1.1" xmlns="http://www.w3.org/2000/svg" xmlns:xlink="http://www.w3.org/1999/xlink">
    <title>telephone-fill-calling@2x</title>
    <g id="telephone-fill-calling" stroke="none" stroke-width="1" fill="none" fill-rule="evenodd">
        <path d="M11.6778407,10.8769943 C12.8500092,9.70766856 14.7475042,9.70766856 15.9205145,10.8778351 L15.9205145,10.8778351 L22.1464333,17.1034528 C23.3156998,18.2757104 23.3156998,20.1731358 22.1455304,21.3462973 L22.1455304,21.3462973 L20.7323768,22.7594503 C20.6824239,22.8093846 20.6791745,23.2755424 20.9425102,23.9856133 C21.2980456,24.9442958 22.018027,26.0291908 22.994368,27.0056174 C23.9702185,27.9815963 25.0551496,28.701448 26.0143849,29.0572516 C26.7240968,29.320501 27.1904614,29.3175977 27.2388806,29.2691784 L27.2388806,29.2691784 L28.6544574,27.8536033 C29.8267332,26.6841701 31.7243629,26.6841701 32.8973535,27.8544667 L32.8973535,27.8544667 L39.1230051,34.0802161 C40.2923316,35.2523843 40.2923316,37.1498792 39.1221223,38.3229312 L39.1221223,38.3229312 L37.7073294,39.7376236 C36.4993927,40.9455598 34.9184792,41.6777665 33.0371433,41.9157619 C32.5817077,41.9725952 32.1237361,42.0007514 31.6673174,42.0000146 C30.3538109,42.0000146 28.9509484,41.7802226 27.4784052,41.347178 C23.5498364,40.1924591 19.453889,37.6105706 15.9211395,34.078957 C12.3895516,30.5484015 9.80771096,26.4516249 8.6527721,22.5207761 C8.06485431,20.5227573 7.87035363,18.6523674 8.08431394,16.9611856 C8.32209512,15.0814435 9.05425189,13.500627 10.2622638,12.2925695 L10.2622638,12.2925695 Z M14.5071771,12.2929238 C14.1156625,11.9023587 13.4818508,11.9023587 13.0911951,12.292066 L13.0911951,12.292066 L11.6764905,13.7067699 C10.7937863,14.5895074 10.2523957,15.7584365 10.0684997,17.212197 C9.89134318,18.6124751 10.0573908,20.2092501 10.5715474,21.9565942 C11.6265208,25.547209 14.028959,29.3593159 17.335136,32.6645264 C20.64274,35.9710669 24.4543328,38.3737119 28.0425372,39.4283879 C29.3392233,39.8097166 30.5538223,40.0000134 31.6689607,40.0000134 C32.0430337,40.0006161 32.4171933,39.9776126 32.787811,39.9313651 C34.2414707,39.7474711 35.4104911,39.2060344 36.2931411,38.3233848 L36.2931411,38.3233848 L37.7070763,36.9095512 C38.0976412,36.5180371 38.0976412,35.8842265 37.7079284,35.4935655 L37.7079284,35.4935655 L31.4839482,29.2694875 C31.0924365,28.8788754 30.45856,28.8788754 30.0678119,29.2686749 L30.0678119,29.2686749 L28.6530939,30.6833923 C27.2518151,32.0846704 24.0611856,30.9011885 21.580077,28.4197535 C19.0972075,25.9366666 17.9147215,22.7481548 19.3182953,21.3451047 L19.3182953,21.3451047 L20.7304144,19.9329874 C21.1210394,19.5413631 21.1210394,18.907483 20.7313342,18.5167797 L20.7313342,18.5167797 Z M27.8823656,8 C31.6274418,7.99715491 35.2199383,9.48366765 37.8681353,12.1317546 C40.5163323,14.7799516 42.0028561,18.3725582 42,22.1176344 C42,22.6049651 41.604961,23 41.1176302,23 C40.6302995,23 40.2352646,22.6049651 40.2352646,22.1176344 C40.2352646,15.3069949 34.6930051,9.76473537 27.8823656,9.76473537 C27.3950349,9.76473537 27,9.36970046 27,8.88235873 C27,8.39505 27.3950349,8 27.8823656,8 Z M27.9091012,13 C30.3200725,13 32.6324379,13.9578375 34.3373002,15.6626998 C36.0421625,17.3675621 37,19.6798141 37,22.0908988 C37,22.5929956 36.5928822,23 36.0908988,23 C35.588802,23 35.1817976,22.5929956 35.1817976,22.0908988 C35.1817976,18.0806982 31.9193018,14.8182024 27.9091012,14.8182024 C27.4070044,14.8182024 27,14.411198 27,13.9091012 C27,13.6680267 27.0957724,13.4368129 27.266236,13.266236 C27.4366995,13.0957724 27.6679134,13 27.9091012,13 Z M28.0000249,18 C30.2081588,18.0024935 31.9976312,19.7919212 32,22 C32,22.5523002 31.552289,23 30.9999751,23 C30.4476611,23 29.9999501,22.5523002 29.9999501,22 C29.998828,20.8958983 29.1040295,20.0012467 28.0000249,20 C27.447711,20 27,19.5523002 27,19 C27,18.7348211 27.1053511,18.4804887 27.2928636,18.2929809 C27.480376,18.1053485 27.7347147,18 28.0000249,18 Z" id="形状结合" fill="#979797" fill-rule="nonzero"></path>
    </g>
</svg>