<?xml version="1.0" encoding="UTF-8"?>
<svg width="50px" height="50px" viewBox="0 0 50 50" version="1.1" xmlns="http://www.w3.org/2000/svg" xmlns:xlink="http://www.w3.org/1999/xlink">
    <title>telephone-fill@2x</title>
    <g id="telephone-fill" stroke="none" stroke-width="1" fill="none" fill-rule="evenodd">
        <path d="M40.3760426,34.372272 L33.7363287,27.7322685 C33.3357009,27.3327136 32.7929808,27.1083114 32.2272452,27.1083114 C31.661412,27.1083114 31.118692,27.3327136 30.7181617,27.7322685 L29.2090782,29.2413513 C28.3554522,30.0949769 25.5912372,29.2453498 23.1730367,26.8269553 C20.7548361,24.4084633 19.9035507,21.6456149 20.758542,20.7909165 L22.2676255,19.2818337 C22.6671806,18.881206 22.8915829,18.3385838 22.8915829,17.7727509 C22.8915829,17.2069179 22.6671806,16.6642957 22.2676255,16.263668 L15.6276191,9.62397659 C15.2270887,9.2244022 14.6843687,9 14.1186331,9 C13.5528974,9 13.0102749,9.2244022 12.6097446,9.62397659 L11.1006611,11.1330497 C9.98557377,12.2481267 9.30637891,13.7147867 9.08149874,15.49245 C8.8728953,17.1412844 9.06523177,18.9905302 9.65292003,20.9877195 C10.8316904,24.9998474 13.4902871,29.2179456 17.1367026,32.8631891 C20.7830205,36.5085302 25.0003404,39.1681009 29.0111048,40.3469683 C30.4886881,40.7815342 31.884644,41 33.1784925,41 C33.622811,41.0006701 34.0666419,40.973461 34.5074495,40.9183601 C36.2852111,40.6934703 37.7518718,40.0143147 38.8669591,38.8992279 L40.3760426,37.3901451 C40.7755977,36.9896149 41,36.4469927 41,35.8812573 C41,35.3154244 40.7755977,34.7728021 40.3760426,34.372272 Z" id="路径" fill="#999999" fill-rule="nonzero"></path>
    </g>
</svg>