<?xml version="1.0" encoding="UTF-8"?>
<svg width="50px" height="50px" viewBox="0 0 50 50" version="1.1" xmlns="http://www.w3.org/2000/svg" xmlns:xlink="http://www.w3.org/1999/xlink">
    <title>trash@2x</title>
    <g id="trash" stroke="none" stroke-width="1" fill="none" fill-rule="evenodd">
        <path d="M7.5,16 C6.67157288,16 6,15.3284271 6,14.5 C6,13.6715729 6.67157288,13 7.5,13 L15,13 L15,11 C15,8.3112453 17.1223067,6.11818189 19.7831104,6.00461951 L20,6 L30,6 C32.7614237,6 35,8.23857625 35,11 L35,11 L35,13 L42.5,13 C43.3284271,13 44,13.6715729 44,14.5 C44,15.3284271 43.3284271,16 42.5,16 L7.5,16 Z M30,9 L20,9 C18.8954305,9 18,9.8954305 18,11 L18,11 L18,13 L32,13 L32,11 C32,9.8954305 31.1045695,9 30,9 L30,9 Z M38,18.5 C38.7796961,18.5 39.4204487,19.0948881 39.4931334,19.85554 L39.5,20 L39.5,38.1578947 C39.5,41.525676 37.2151567,44.3680793 34.2107571,44.4955399 L34,44.5 L16,44.5 C12.9629792,44.5 10.6091127,41.7341371 10.5036875,38.3919763 L10.5,38.1578947 L10.5,20 C10.5,19.1715729 11.1715729,18.5 12,18.5 C12.7796961,18.5 13.4204487,19.0948881 13.4931334,19.85554 L13.5,20 L13.5,38.1578947 C13.5,39.9922941 14.6059332,41.3965696 15.8600881,41.4945352 L16,41.5 L34,41.5 C35.2638206,41.5 36.4148902,40.1612387 36.4954975,38.3599023 L36.5,38.1578947 L36.5,20 C36.5,19.1715729 37.1715729,18.5 38,18.5 Z M20.5,18 C21.3284271,18 22,18.6715729 22,19.5 L22,36.5 C22,37.3284271 21.3284271,38 20.5,38 C19.6715729,38 19,37.3284271 19,36.5 L19,19.5 C19,18.6715729 19.6715729,18 20.5,18 Z M29.5,18 C30.3284271,18 31,18.6715729 31,19.5 L31,36.5 C31,37.3284271 30.3284271,38 29.5,38 C28.6715729,38 28,37.3284271 28,36.5 L28,19.5 C28,18.6715729 28.6715729,18 29.5,18 Z" id="形状结合" fill="#999999" fill-rule="nonzero"></path>
    </g>
</svg>