<?xml version="1.0" encoding="UTF-8"?>
<svg width="50px" height="50px" viewBox="0 0 50 50" version="1.1" xmlns="http://www.w3.org/2000/svg" xmlns:xlink="http://www.w3.org/1999/xlink">
    <title>type@2x</title>
    <g id="type" stroke="none" stroke-width="1" fill="none" fill-rule="evenodd">
        <path d="M20,7 C22.209139,7 24,8.790861 24,11 L24,20 C24,22.209139 22.209139,24 20,24 L11,24 C8.790861,24 7,22.209139 7,20 L7,11 C7,8.790861 8.790861,7 11,7 L20,7 Z M20,10 L11,10 C10.4871642,10 10.0644928,10.3860402 10.0067277,10.8833789 L10,11 L10,20 C10,20.5128358 10.3860402,20.9355072 10.8833789,20.9932723 L11,21 L20,21 C20.5128358,21 20.9355072,20.6139598 20.9932723,20.1166211 L21,20 L21,11 C21,10.4871642 20.6139598,10.0644928 20.1166211,10.0067277 L20,10 Z M20,26 C22.209139,26 24,27.790861 24,30 L24,39 C24,41.209139 22.209139,43 20,43 L11,43 C8.790861,43 7,41.209139 7,39 L7,30 C7,27.790861 8.790861,26 11,26 L20,26 Z M20,29 L11,29 C10.4871642,29 10.0644928,29.3860402 10.0067277,29.8833789 L10,30 L10,39 C10,39.5128358 10.3860402,39.9355072 10.8833789,39.9932723 L11,40 L20,40 C20.5128358,40 20.9355072,39.6139598 20.9932723,39.1166211 L21,39 L21,30 C21,29.4871642 20.6139598,29.0644928 20.1166211,29.0067277 L20,29 Z M39,7 C41.209139,7 43,8.790861 43,11 L43,20 C43,22.209139 41.209139,24 39,24 L30,24 C27.790861,24 26,22.209139 26,20 L26,11 C26,8.790861 27.790861,7 30,7 L39,7 Z M39,10 L30,10 C29.4871642,10 29.0644928,10.3860402 29.0067277,10.8833789 L29,11 L29,20 C29,20.5128358 29.3860402,20.9355072 29.8833789,20.9932723 L30,21 L39,21 C39.5128358,21 39.9355072,20.6139598 39.9932723,20.1166211 L40,20 L40,11 C40,10.4871642 39.6139598,10.0644928 39.1166211,10.0067277 L39,10 Z M39,26 C41.209139,26 43,27.790861 43,30 L43,39 C43,41.209139 41.209139,43 39,43 L30,43 C27.790861,43 26,41.209139 26,39 L26,30 C26,27.790861 27.790861,26 30,26 L39,26 Z M39,29 L30,29 C29.4871642,29 29.0644928,29.3860402 29.0067277,29.8833789 L29,30 L29,39 C29,39.5128358 29.3860402,39.9355072 29.8833789,39.9932723 L30,40 L39,40 C39.5128358,40 39.9355072,39.6139598 39.9932723,39.1166211 L40,39 L40,30 C40,29.4871642 39.6139598,29.0644928 39.1166211,29.0067277 L39,29 Z" id="形状结合" fill="#999999" fill-rule="nonzero"></path>
    </g>
</svg>