<?xml version="1.0" encoding="UTF-8"?>
<svg width="50px" height="50px" viewBox="0 0 50 50" version="1.1" xmlns="http://www.w3.org/2000/svg" xmlns:xlink="http://www.w3.org/1999/xlink">
    <title>write@2x</title>
    <g id="write" stroke="none" stroke-width="1" fill="none" fill-rule="evenodd">
        <path d="M36.3537235,8.02425326 L39.2478437,10.723064 C40.8616857,12.227996 40.9519667,14.7555698 39.449608,16.3718076 L22.0205841,35.1219634 C21.4640499,35.7206755 20.7374486,36.1345125 19.9385921,36.3077599 L11.7777554,38.0775937 C11.2380173,38.1946462 10.7055834,37.8519919 10.5885308,37.3122539 C10.5591091,37.1765881 10.558256,37.0362825 10.5860258,36.9002689 L12.2007206,28.991668 C12.3476697,28.2719272 12.6899799,27.6065516 13.1901117,27.0685097 L30.7006297,8.23068244 C32.2046864,6.61262545 34.7356595,6.52020403 36.3537235,8.02425326 Z M15.617813,28.8629972 L15.38743,29.1110063 C15.2936553,29.2118892 15.2220742,29.3306783 15.1766461,29.4596779 L15.1400822,29.5917959 L14.1378469,34.4956392 L19.302765,33.3759134 C19.4625363,33.3412639 19.6107467,33.2681201 19.734876,33.1636129 L19.823262,33.0794634 L19.968813,32.9219972 L15.617813,28.8629972 Z M30.548813,12.7999972 L17.660813,26.6649972 L22.011813,30.7239972 L34.900813,16.8579972 L30.548813,12.7999972 Z M32.9822789,10.1923451 L32.8979518,10.2731825 L32.591813,10.6019972 L36.943813,14.6599972 L37.2522897,14.329311 C37.6010515,13.954113 37.606502,13.3824662 37.2824705,13.0014856 L37.2018515,12.9171278 L34.3112243,10.2215744 C33.9356023,9.87242014 33.3631925,9.86740296 32.9822789,10.1923451 Z M9.5,39 L40.5,39 C41.3284271,39 42,39.6715729 42,40.5 C42,41.3284271 41.3284271,42 40.5,42 L9.5,42 C8.67157288,42 8,41.3284271 8,40.5 C8,39.6715729 8.67157288,39 9.5,39 Z" id="形状结合" fill="#999999" fill-rule="nonzero"></path>
    </g>
</svg>