<svg width="26" height="26" viewBox="0 0 26 26" fill="none" xmlns="http://www.w3.org/2000/svg">
<path fill-rule="evenodd" clip-rule="evenodd" d="M17.5803 14.8712C18.217 14.236 19.2477 14.236 19.8845 14.8712L24.9535 19.9403C25.5886 20.577 25.5886 21.6076 24.9535 22.2443L23.8014 23.3964C22.9501 24.2476 21.8304 24.7661 20.4732 24.9378C20.1367 24.9799 19.7978 25.0007 19.4586 25.0001C18.4709 25.0001 17.4052 24.8333 16.2771 24.5016C13.2152 23.6016 9.99557 21.5712 7.2118 18.7883C4.42804 16.0053 2.3984 12.7851 1.49845 9.72216C1.0498 8.1974 0.902963 6.78566 1.06222 5.52688C1.2339 4.16972 1.75241 3.05003 2.60369 2.19875L3.75577 1.04668C4.39243 0.411525 5.42306 0.411525 6.05972 1.04668L11.1289 6.11564C11.7641 6.75237 11.7641 7.78306 11.1289 8.41979L9.97826 9.57044L9.97683 9.57187C9.32412 10.2244 9.97398 12.3336 11.8201 14.18C13.6663 16.0263 15.7765 16.6749 16.4282 16.0232L17.5803 14.8712ZM22.8805 22.4744L24.0324 21.3224C24.0936 21.2612 24.128 21.1782 24.1279 21.0916C24.1278 21.0051 24.0933 20.9221 24.032 20.8611L18.963 15.7921C18.9019 15.731 18.819 15.6966 18.7326 15.6966C18.6462 15.6966 18.5633 15.731 18.5022 15.7921L17.3503 16.9442C16.9336 17.3609 16.3619 17.572 15.6828 17.572C15.26 17.572 14.7954 17.4904 14.3001 17.3252C13.1619 16.9456 11.9538 16.1554 10.8991 15.1009C9.84435 14.0464 9.05437 12.8385 8.67476 11.6999C8.24403 10.4091 8.37987 9.32505 9.0558 8.64973L10.2079 7.49786C10.269 7.43675 10.3033 7.35386 10.3033 7.26743C10.3033 7.18099 10.269 7.0981 10.2079 7.03699L5.13889 1.96802C5.07778 1.9069 4.99489 1.87256 4.90846 1.87256C4.82202 1.87256 4.73913 1.9069 4.67802 1.96802L3.52594 3.11989C2.2254 4.42064 1.94965 6.63497 2.74961 9.35478C3.58968 12.2112 5.50201 15.2339 8.13426 17.8661C10.7665 20.4984 13.7892 22.4107 16.6456 23.2508C19.3657 24.0507 21.5798 23.775 22.8805 22.4744Z" fill="#266eff"/>
<path d="M19.8845 14.8712L20.132 14.6237L20.1317 14.6234L19.8845 14.8712ZM17.5803 14.8712L17.3331 14.6234L17.3328 14.6237L17.5803 14.8712ZM24.9535 19.9403L25.2012 19.6931L25.2009 19.6928L24.9535 19.9403ZM24.9535 22.2443L25.2009 22.4918L25.2012 22.4915L24.9535 22.2443ZM23.8014 23.3964L23.5539 23.1489L23.5539 23.1489L23.8014 23.3964ZM20.4732 24.9378L20.5166 25.2851L20.5172 25.285L20.4732 24.9378ZM19.4586 25.0001L19.4592 24.6501H19.4586V25.0001ZM16.2771 24.5016L16.3759 24.1658L16.3758 24.1658L16.2771 24.5016ZM7.2118 18.7883L6.96435 19.0358L6.96435 19.0358L7.2118 18.7883ZM1.49845 9.72216L1.83426 9.6235L1.83422 9.62336L1.49845 9.72216ZM1.06222 5.52688L1.40945 5.57081L1.40945 5.5708L1.06222 5.52688ZM2.60369 2.19875L2.85118 2.44624L2.60369 2.19875ZM3.75577 1.04668L3.50858 0.798894L3.50828 0.799188L3.75577 1.04668ZM6.05972 1.04668L6.30721 0.799182L6.30692 0.798894L6.05972 1.04668ZM11.1289 6.11564L11.3767 5.86846L11.3764 5.86815L11.1289 6.11564ZM11.1289 8.41979L11.3764 8.66728L11.3767 8.66698L11.1289 8.41979ZM9.97826 9.57044L9.73077 9.32295L9.73077 9.32295L9.97826 9.57044ZM9.97683 9.57187L10.2243 9.81939L10.2243 9.81935L9.97683 9.57187ZM16.4282 16.0232L16.1807 15.7758L16.1807 15.7758L16.4282 16.0232ZM24.0324 21.3224L23.785 21.0748L23.7849 21.0749L24.0324 21.3224ZM22.8805 22.4744L23.128 22.7219L23.1281 22.7219L22.8805 22.4744ZM24.1279 21.0916L24.4779 21.0913L24.4779 21.0913L24.1279 21.0916ZM24.032 20.8611L23.7845 21.1086L23.785 21.109L24.032 20.8611ZM18.963 15.7921L18.7155 16.0396L18.7155 16.0396L18.963 15.7921ZM18.5022 15.7921L18.7497 16.0396L18.7497 16.0396L18.5022 15.7921ZM17.3503 16.9442L17.5978 17.1917L17.5978 17.1916L17.3503 16.9442ZM14.3001 17.3252L14.1894 17.6572L14.1894 17.6572L14.3001 17.3252ZM10.8991 15.1009L10.6516 15.3484L10.6516 15.3484L10.8991 15.1009ZM8.67476 11.6999L9.00679 11.5892L9.00676 11.5891L8.67476 11.6999ZM9.0558 8.64973L9.30317 8.89733L9.30326 8.89724L9.0558 8.64973ZM10.2079 7.49786L9.96042 7.25034L9.96041 7.25035L10.2079 7.49786ZM10.2079 7.03699L9.96039 7.28448L9.96042 7.28451L10.2079 7.03699ZM5.13889 1.96802L4.89138 2.21548L4.89141 2.21551L5.13889 1.96802ZM4.67802 1.96802L4.92548 2.21553L4.92554 2.21548L4.67802 1.96802ZM3.52594 3.11989L3.27848 2.87238L3.27843 2.87243L3.52594 3.11989ZM2.74961 9.35478L3.08539 9.25603L3.08538 9.25602L2.74961 9.35478ZM8.13426 17.8661L7.88677 18.1136L7.88677 18.1136L8.13426 17.8661ZM16.6456 23.2508L16.7444 22.915L16.7444 22.915L16.6456 23.2508ZM20.1317 14.6234C19.3583 13.8519 18.1065 13.8519 17.3331 14.6234L17.8275 15.119C18.3276 14.6201 19.1372 14.6201 19.6373 15.119L20.1317 14.6234ZM25.2009 19.6928L20.132 14.6237L19.637 15.1186L24.706 20.1878L25.2009 19.6928ZM25.2012 22.4915C25.9727 21.7182 25.9727 20.4664 25.2012 19.6931L24.7057 20.1875C25.2045 20.6876 25.2045 21.497 24.7057 21.9971L25.2012 22.4915ZM24.0489 23.6438L25.2009 22.4918L24.706 21.9968L23.5539 23.1489L24.0489 23.6438ZM20.5172 25.285C21.9403 25.105 23.1353 24.5574 24.0489 23.6438L23.5539 23.1489C22.7649 23.9378 21.7205 24.4272 20.4293 24.5906L20.5172 25.285ZM19.4581 25.3501C19.8119 25.3507 20.1655 25.329 20.5166 25.2851L20.4298 24.5905C20.1079 24.6308 19.7837 24.6507 19.4592 24.6501L19.4581 25.3501ZM16.1784 24.8374C17.3326 25.1768 18.4319 25.3501 19.4586 25.3501V24.6501C18.5099 24.6501 17.4777 24.4898 16.3759 24.1658L16.1784 24.8374ZM6.96435 19.0358C9.7799 21.8505 13.0485 23.9175 16.1784 24.8374L16.3758 24.1658C13.3818 23.2858 10.2112 21.2919 7.45925 18.5407L6.96435 19.0358ZM1.16265 9.82083C2.08256 12.9517 4.1487 16.221 6.96435 19.0358L7.45925 18.5407C4.70738 15.7897 2.71425 12.6185 1.83426 9.6235L1.16265 9.82083ZM0.714989 5.48294C0.548351 6.80006 0.703748 8.26125 1.16268 9.82096L1.83422 9.62336C1.39585 8.13355 1.25757 6.77127 1.40945 5.57081L0.714989 5.48294ZM2.3562 1.95126C1.44262 2.86484 0.895018 4.05981 0.714989 5.48295L1.40945 5.5708C1.57279 4.27963 2.0622 3.23522 2.85118 2.44624L2.3562 1.95126ZM3.50828 0.799188L2.3562 1.95126L2.85118 2.44624L4.00326 1.29416L3.50828 0.799188ZM6.30692 0.798894C5.53364 0.0274519 4.28185 0.0274518 3.50858 0.798894L4.00296 1.29446C4.50301 0.795598 5.31249 0.795598 5.81253 1.29446L6.30692 0.798894ZM11.3764 5.86815L6.30721 0.799183L5.81224 1.29417L10.8814 6.36313L11.3764 5.86815ZM11.3767 8.66698C12.1482 7.89363 12.1482 6.6418 11.3767 5.86846L10.8811 6.36283C11.38 6.86294 11.38 7.67249 10.8811 8.1726L11.3767 8.66698ZM10.2257 9.81793L11.3764 8.66728L10.8814 8.1723L9.73077 9.32295L10.2257 9.81793ZM10.2243 9.81935L10.2257 9.81793L9.73077 9.32295L9.72935 9.32438L10.2243 9.81935ZM12.0676 13.9325C11.1747 13.0395 10.5812 12.0922 10.2895 11.3064C10.1434 10.9127 10.0782 10.5734 10.0799 10.3097C10.0816 10.042 10.1506 9.89305 10.2243 9.81939L9.72939 9.32434C9.47671 9.57693 9.38221 9.9363 9.37988 10.3053C9.37751 10.6784 9.46778 11.1041 9.63328 11.55C9.96494 12.4436 10.6194 13.4741 11.5726 14.4274L12.0676 13.9325ZM16.1807 15.7758C16.1074 15.8491 15.9585 15.9181 15.6907 15.9198C15.4271 15.9215 15.0876 15.8563 14.6938 15.7102C13.9079 15.4187 12.9605 14.8254 12.0676 13.9325L11.5726 14.4274C12.5259 15.3808 13.5566 16.035 14.4504 16.3665C14.8963 16.5319 15.3221 16.6221 15.6951 16.6198C16.0639 16.6175 16.4233 16.5232 16.6757 16.2707L16.1807 15.7758ZM17.3328 14.6237L16.1807 15.7758L16.6757 16.2707L17.8278 15.1187L17.3328 14.6237ZM23.7849 21.0749L22.633 22.227L23.1281 22.7219L24.2799 21.5698L23.7849 21.0749ZM23.7779 21.0919C23.7779 21.0855 23.7804 21.0794 23.785 21.0748L24.2799 21.5699C24.4068 21.443 24.478 21.2708 24.4779 21.0913L23.7779 21.0919ZM23.785 21.109C23.7805 21.1045 23.7779 21.0984 23.7779 21.0919L24.4779 21.0913C24.4777 20.9118 24.4062 20.7398 24.279 20.6131L23.785 21.109ZM18.7155 16.0396L23.7845 21.1086L24.2795 20.6136L19.2105 15.5446L18.7155 16.0396ZM18.7326 16.0466C18.7262 16.0466 18.72 16.0441 18.7155 16.0396L19.2105 15.5446C19.0838 15.4179 18.9119 15.3466 18.7326 15.3466V16.0466ZM18.7497 16.0396C18.7451 16.0441 18.739 16.0466 18.7326 16.0466V15.3466C18.5533 15.3466 18.3814 15.4179 18.2546 15.5446L18.7497 16.0396ZM17.5978 17.1916L18.7497 16.0396L18.2546 15.5446L17.1028 16.6967L17.5978 17.1916ZM15.6828 17.922C16.4368 17.922 17.1038 17.6857 17.5978 17.1917L17.1028 16.6967C16.7635 17.036 16.2871 17.222 15.6828 17.222V17.922ZM14.1894 17.6572C14.7133 17.832 15.2155 17.922 15.6828 17.922V17.222C15.3044 17.222 14.8775 17.1488 14.4109 16.9932L14.1894 17.6572ZM10.6516 15.3484C11.7356 16.4322 12.9886 17.2568 14.1894 17.6572L14.4109 16.9932C13.3352 16.6344 12.172 15.8787 11.1465 14.8534L10.6516 15.3484ZM8.34273 11.8106C8.74319 13.0117 9.56759 14.2646 10.6516 15.3484L11.1465 14.8534C10.1211 13.8282 9.36556 12.6653 9.00679 11.5892L8.34273 11.8106ZM8.80842 8.40213C8.00061 9.20921 7.89029 10.4548 8.34276 11.8107L9.00676 11.5891C8.59777 10.3635 8.75912 9.44089 9.30317 8.89733L8.80842 8.40213ZM9.96041 7.25035L8.80833 8.40222L9.30326 8.89724L10.4553 7.74537L9.96041 7.25035ZM9.95334 7.26743C9.95334 7.26102 9.95589 7.25487 9.96042 7.25034L10.4553 7.74538C10.5821 7.61862 10.6533 7.4467 10.6533 7.26743H9.95334ZM9.96042 7.28451C9.95589 7.27998 9.95334 7.27383 9.95334 7.26743H10.6533C10.6533 7.08815 10.5821 6.91623 10.4553 6.78947L9.96042 7.28451ZM4.89141 2.21551L9.96039 7.28448L10.4554 6.7895L5.38638 1.72054L4.89141 2.21551ZM4.90846 2.22256C4.90205 2.22256 4.89591 2.22001 4.89138 2.21548L5.38641 1.72056C5.25966 1.59378 5.08773 1.52256 4.90846 1.52256V2.22256ZM4.92554 2.21548C4.92101 2.22001 4.91486 2.22256 4.90846 2.22256V1.52256C4.72918 1.52256 4.55726 1.59378 4.4305 1.72056L4.92554 2.21548ZM3.77341 3.3674L4.92548 2.21553L4.43056 1.72051L3.27848 2.87238L3.77341 3.3674ZM3.08538 9.25602C2.30032 6.58686 2.60648 4.53451 3.77345 3.36736L3.27843 2.87243C1.84432 4.30676 1.59897 6.68309 2.41383 9.45354L3.08538 9.25602ZM8.38174 17.6186C5.78071 15.0176 3.9053 12.0439 3.08539 9.25603L2.41383 9.45354C3.27407 12.3786 5.22331 15.4502 7.88677 18.1136L8.38174 17.6186ZM16.7444 22.915C13.9565 22.0951 10.9828 20.2197 8.38174 17.6186L7.88677 18.1136C10.5502 20.7771 13.6219 22.7263 16.5469 23.5865L16.7444 22.915ZM22.6331 22.2269C21.4659 23.3939 19.4138 23.7 16.7444 22.915L16.5469 23.5865C19.3175 24.4014 21.6937 24.156 23.128 22.7219L22.6331 22.2269Z" fill="#266eff"/>
</svg>
