<?xml version="1.0" encoding="UTF-8"?>
<svg width="50px" height="50px" viewBox="0 0 50 50" version="1.1" xmlns="http://www.w3.org/2000/svg" xmlns:xlink="http://www.w3.org/1999/xlink">
    <title>login-wechat@2x</title>
    <g id="login-wechat" stroke="none" stroke-width="1" fill="none" fill-rule="evenodd">
        <path d="M34.2,19.42 C41.79,19.42 48,24.48 48,30.92 C48,34.9510526 45.6014058,38.3279432 41.8657962,40.6260402 L41.56,40.81 L42.71,44.26 L38.34,41.96 C36.96,42.19 35.58,42.42 34.2,42.42 C26.61,42.42 20.4,37.36 20.4,30.92 C20.4,24.48 26.61,19.42 34.2,19.42 Z M18.56,7 C26.2518033,7 32.3859608,11.4504166 34.3359971,17.2870284 L34.43,17.58 L33.74,17.58 C25.1165333,17.58 18.2843271,23.1776889 18.103668,30.1755464 L18.1,30.46 L18.1041875,30.7784615 C18.1352799,31.9461538 18.3437142,33.1138462 18.8688302,34.2815385 L19.02,34.6 L18.56,34.6 C16.904,34.6 15.4343,34.4137 13.98323,34.0411 L13.5,33.91 L8.21,36.44 L9.59,32.3 C4.99,30 2,25.63 2,20.8 C2,13.21 9.36,7 18.56,7 Z M29.37,24.48 C27.99,24.48 27.07,25.4 27.07,26.78 C27.07,28.16 27.99,29.08 29.37,29.08 C30.52,29.08 31.67,27.93 31.67,26.78 C31.67,25.4 30.75,24.48 29.37,24.48 Z M38.8,24.48 C37.42,24.48 36.5,25.4 36.5,26.78 C36.5,28.16 37.42,29.08 38.8,29.08 C39.95,29.08 41.1,27.93 41.1,26.78 C41.1,25.4 40.18,24.48 38.8,24.48 Z M24.31,11.83 C22.7,11.83 21.32,12.98 21.32,14.59 C21.32,16.2 22.7,17.58 24.31,17.81 C25.92,17.81 27.3,16.43 27.3,14.82 C27.3,13.21 25.92,11.83 24.31,11.83 Z M13.27,11.6 C11.66,11.6 10.28,12.98 10.28,14.59 C10.28,16.2 11.43,17.58 13.04,17.58 C14.65,17.58 16.03,16.2 16.03,14.59 C16.03,12.98 14.88,11.6 13.27,11.6 Z" id="形状结合" fill="#999999" fill-rule="nonzero"></path>
    </g>
</svg>