<?xml version="1.0" encoding="UTF-8"?>
<svg width="50px" height="50px" viewBox="0 0 50 50" version="1.1" xmlns="http://www.w3.org/2000/svg" xmlns:xlink="http://www.w3.org/1999/xlink">
    <title>login-phone@2x</title>
    <g id="login-phone" stroke="none" stroke-width="1" fill="none" fill-rule="evenodd">
        <path d="M34.1502004,3 C38.3972708,3 41.8668425,6.40767533 41.9962578,10.644657 L42,10.89 L42,39.11 C42,43.3789057 38.6115122,46.8661638 34.3943966,46.9962387 L34.1502004,47 L15.8497996,47 C11.6027292,47 8.13315753,43.5923247 8.00374225,39.355343 L8,39.11 L8,10.89 C8,6.62207547 11.3884878,3.13387326 15.6056034,3.00376237 L15.8497996,3 L34.1502004,3 Z M34.2346786,6 L15.7653214,6 C13.2150511,5.9940383 11.128207,8.01949163 11.0056352,10.5698016 L11,10.7835101 L11,39.220533 C11,41.7828989 13.0225951,43.8836479 15.5532867,43.9953302 L15.7653214,44 L34.2346786,44 C36.7924292,44 38.8841527,41.9694579 38.9953505,39.4302556 L39,39.2175105 L39,10.7835101 C38.9873712,8.13358427 36.8557897,5.99387269 34.2346786,6 Z M28.5,36 C29.3284271,36 30,36.6715729 30,37.5 C30,38.3284271 29.3284271,39 28.5,39 L21.5,39 C20.6715729,39 20,38.3284271 20,37.5 C20,36.6715729 20.6715729,36 21.5,36 L28.5,36 Z" id="形状结合" fill="#999999" fill-rule="nonzero"></path>
    </g>
</svg>