<svg width="46" height="40" viewBox="0 0 46 40" fill="none" xmlns="http://www.w3.org/2000/svg">
<g id="&#229;&#186;&#149;&#233;&#131;&#168;&#230;&#160;&#143;&#239;&#188;&#140;icon&#239;&#188;&#140;&#233;&#166;&#150;&#233;&#161;&#181;&#239;&#188;&#140;&#233;&#128;&#137;&#228;&#184;&#173;">
<g id="Group 21208">
<path id="Rectangle 300" d="M32 3H16C11.5817 3 8 6.58172 8 11V36.523C8 37.2304 8.71453 37.7142 9.37139 37.4514L23 32L36.6286 37.4514C37.2855 37.7142 38 37.2304 38 36.523V8" stroke="#333333" stroke-width="3" stroke-linecap="round" stroke-linejoin="round"/>
<path id="Union" fill-rule="evenodd" clip-rule="evenodd" d="M24.5 14C24.5 13.1716 23.8284 12.5 23 12.5C22.1716 12.5 21.5 13.1716 21.5 14V17H18.5C17.6716 17 17 17.6716 17 18.5C17 19.3284 17.6716 20 18.5 20H21.5V23C21.5 23.8284 22.1716 24.5 23 24.5C23.8284 24.5 24.5 23.8284 24.5 23V20H27.5C28.3284 20 29 19.3284 29 18.5C29 17.6716 28.3284 17 27.5 17H24.5V14Z" fill="#333333"/>
</g>
</g>
</svg>
