<svg width="46" height="40" viewBox="0 0 46 40" fill="none" xmlns="http://www.w3.org/2000/svg">
<g id="&#229;&#186;&#149;&#233;&#131;&#168;&#230;&#160;&#143;&#239;&#188;&#140;icon&#239;&#188;&#140;&#233;&#166;&#150;&#233;&#161;&#181;&#239;&#188;&#140;&#233;&#128;&#137;&#228;&#184;&#173;">
<path id="Union" fill-rule="evenodd" clip-rule="evenodd" d="M22.697 3.11691C22.876 2.98056 23.124 2.98056 23.303 3.1169L24.2119 1.92368L23.303 3.11691L30.591 8.66869L34.841 11.9062L38.303 14.5434L39.2119 13.3501L38.303 14.5434C38.4271 14.6379 38.5 14.7851 38.5 14.9411V30.5255C38.5 31.3539 39.1716 32.0255 40 32.0255C40.8284 32.0255 41.5 31.3539 41.5 30.5255V14.9411C41.5 13.8487 40.9899 12.8189 40.1209 12.1569L36.659 9.51973L32.409 6.28223L25.1209 0.730451C23.868 -0.223952 22.132 -0.223952 20.8791 0.730449L5.8791 12.1569C5.01008 12.8189 4.5 13.8487 4.5 14.9411V32.0005C4.5 36.1426 7.85786 39.5005 12 39.5005H40C40.8284 39.5005 41.5 38.8289 41.5 38.0005C41.5 37.172 40.8284 36.5005 40 36.5005H12C9.51472 36.5005 7.5 34.4857 7.5 32.0005V14.9411C7.5 14.7851 7.57287 14.6379 7.69701 14.5434L22.697 3.11691ZM18.5 27.0005C17.6716 27.0005 17 27.672 17 28.5005C17 29.3289 17.6716 30.0005 18.5 30.0005H27.5C28.3284 30.0005 29 29.3289 29 28.5005C29 27.672 28.3284 27.0005 27.5 27.0005H18.5Z" fill="#333333"/>
</g>
</svg>
