<svg width="46" height="40" viewBox="0 0 46 40" fill="none" xmlns="http://www.w3.org/2000/svg">
<g id="&#229;&#186;&#149;&#233;&#131;&#168;&#230;&#160;&#143;&#239;&#188;&#140;icon&#239;&#188;&#140;&#233;&#166;&#150;&#233;&#161;&#181;&#239;&#188;&#140;&#233;&#128;&#137;&#228;&#184;&#173;">
<path id="&#231;&#159;&#169;&#229;&#189;&#162;" d="M34.1261 9H25.1792C24.5912 9 24.0331 8.74129 23.6531 8.29264L19.7693 3.70736C19.3893 3.25871 18.8311 3 18.2432 3H13.5851H8C6.89543 3 6 3.89543 6 5V29C6 33.4183 9.58172 37 14 37H38C39.1046 37 40 36.1046 40 35V15" stroke="#333333" stroke-width="3" stroke-linecap="round"/>
<path id="&#232;&#183;&#175;&#229;&#190;&#132;" d="M18.25 25.5C18.25 25.3619 18.3619 25.25 18.5 25.25H27.5C27.6381 25.25 27.75 25.3619 27.75 25.5C27.75 25.6381 27.6381 25.75 27.5 25.75H18.5C18.3619 25.75 18.25 25.6381 18.25 25.5Z" stroke="#333333" stroke-width="2.5"/>
</g>
</svg>
