<svg width="46" height="40" viewBox="0 0 46 40" fill="none" xmlns="http://www.w3.org/2000/svg">
<g id="&#229;&#186;&#149;&#233;&#131;&#168;&#230;&#160;&#143;&#239;&#188;&#140;icon&#239;&#188;&#140;&#233;&#166;&#150;&#233;&#161;&#181;&#239;&#188;&#140;&#233;&#128;&#137;&#228;&#184;&#173;">
<path id="Union" fill-rule="evenodd" clip-rule="evenodd" d="M3.5 20C3.5 9.23045 12.2304 0.5 23 0.5H41C41.8284 0.5 42.5 1.17157 42.5 2C42.5 2.82843 41.8284 3.5 41 3.5H23C13.8873 3.5 6.5 10.8873 6.5 20C6.5 29.1127 13.8873 36.5 23 36.5C32.1127 36.5 39.5 29.1127 39.5 20V10.5263C39.5 9.69789 40.1716 9.02632 41 9.02632C41.8284 9.02632 42.5 9.69789 42.5 10.5263V20C42.5 30.7696 33.7696 39.5 23 39.5C12.2304 39.5 3.5 30.7696 3.5 20ZM14 14.5C14 13.6716 14.6716 13 15.5 13C16.3284 13 17 13.6716 17 14.5V21.5C17 22.3284 16.3284 23 15.5 23C14.6716 23 14 22.3284 14 21.5V14.5ZM24.5 13C23.6716 13 23 13.6716 23 14.5V21.5C23 22.3284 23.6716 23 24.5 23C25.3284 23 26 22.3284 26 21.5V14.5C26 13.6716 25.3284 13 24.5 13Z" fill="#333333"/>
</g>
</svg>
