<svg width="30" height="33" viewBox="0 0 30 33" fill="none" xmlns="http://www.w3.org/2000/svg">
<g id="icon_&#233;&#154;&#144;&#231;&#167;&#129;&#229;&#141;&#143;&#232;&#174;&#174;">
<path id="Path" d="M19.8889 10.4647V2.21191H22.3132V12.4341C22.3132 13.3372 21.3611 13.9231 20.555 13.5163L17.5646 12.0071L14.5306 13.519C13.7247 13.9206 12.7778 13.3345 12.7778 12.4341V2.21191H15.2021V10.4758L17.0274 9.56624C17.3698 9.39562 17.7726 9.39664 18.1141 9.56899L19.8889 10.4647Z" fill="#266EFF" stroke="#266EFF" stroke-width="0.5"/>
<g id="&#231;&#159;&#169;&#229;&#189;&#162; copy 5">
<path fill-rule="evenodd" clip-rule="evenodd" d="M24.6203 1H5.37979C2.65968 1 0.45459 3.1976 0.45459 5.90847V27.6067C0.45459 30.3176 2.65968 32.5152 5.37979 32.5152H24.6203C27.3404 32.5152 29.5455 30.3176 29.5455 27.6067V5.90847C29.5455 3.1976 27.3404 1 24.6203 1ZM2.87883 5.63471C2.87883 4.4139 3.87517 3.42424 5.10421 3.42424H24.8959C26.1249 3.42424 27.1213 4.4139 27.1213 5.63471V27.8804C27.1213 29.1012 26.1249 30.0909 24.8959 30.0909H5.10421C3.87517 30.0909 2.87883 29.1012 2.87883 27.8804V5.63471Z" fill="#222222"/>
<path d="M5.37979 1.25H24.6203V0.75H5.37979V1.25ZM0.70459 5.90847C0.70459 3.33647 2.79695 1.25 5.37979 1.25V0.75C2.52241 0.75 0.20459 3.05873 0.20459 5.90847H0.70459ZM0.70459 27.6067V5.90847H0.20459V27.6067H0.70459ZM5.37979 32.2652C2.79695 32.2652 0.70459 30.1787 0.70459 27.6067H0.20459C0.20459 30.4564 2.52241 32.7652 5.37979 32.7652V32.2652ZM24.6203 32.2652H5.37979V32.7652H24.6203V32.2652ZM29.2955 27.6067C29.2955 30.1787 27.2031 32.2652 24.6203 32.2652V32.7652C27.4777 32.7652 29.7955 30.4564 29.7955 27.6067H29.2955ZM29.2955 5.90847V27.6067H29.7955V5.90847H29.2955ZM24.6203 1.25C27.2031 1.25 29.2955 3.33647 29.2955 5.90847H29.7955C29.7955 3.05873 27.4777 0.75 24.6203 0.75V1.25ZM5.10421 3.17424C3.73868 3.17424 2.62883 4.27425 2.62883 5.63471H3.12883C3.12883 4.55355 4.01165 3.67424 5.10421 3.67424V3.17424ZM24.8959 3.17424H5.10421V3.67424H24.8959V3.17424ZM27.3713 5.63471C27.3713 4.27425 26.2614 3.17424 24.8959 3.17424V3.67424C25.9884 3.67424 26.8713 4.55355 26.8713 5.63471H27.3713ZM27.3713 27.8804V5.63471H26.8713V27.8804H27.3713ZM24.8959 30.3409C26.2614 30.3409 27.3713 29.2409 27.3713 27.8804H26.8713C26.8713 28.9616 25.9884 29.8409 24.8959 29.8409V30.3409ZM5.10421 30.3409H24.8959V29.8409H5.10421V30.3409ZM2.62883 27.8804C2.62883 29.2409 3.73868 30.3409 5.10421 30.3409V29.8409C4.01165 29.8409 3.12883 28.9616 3.12883 27.8804H2.62883ZM2.62883 5.63471V27.8804H3.12883V5.63471H2.62883Z" fill="#222222"/>
</g>
</g>
</svg>
