<svg width="36" height="32" viewBox="0 0 36 32" fill="none" xmlns="http://www.w3.org/2000/svg">
<g id="icon_&#232;&#180;&#166;&#230;&#136;&#183;&#231;&#174;&#161;&#231;&#144;&#134;">
<g id="Stroke 1">
<path fill-rule="evenodd" clip-rule="evenodd" d="M28.3961 3.4153C27.4633 1.82643 25.746 0.848633 23.8883 0.848633H12.1117C10.254 0.848633 8.5367 1.82643 7.60385 3.4153L1.73517 13.4111C0.795366 15.0118 0.795348 16.9879 1.73512 18.5887L7.60386 28.5849C8.53669 30.1738 10.254 31.1517 12.1118 31.1517H23.8882C25.746 31.1517 27.4633 30.1738 28.3961 28.5849L34.2649 18.5887C35.2047 16.9879 35.2046 15.0118 34.2648 13.4111L28.3961 3.4153ZM12.1117 3.24654H23.8883C24.8819 3.24654 25.8005 3.76954 26.2995 4.6194L32.1681 14.6152C32.6708 15.4714 32.6708 16.5284 32.1682 17.3846L26.2994 27.3809C25.8005 28.2307 24.8819 28.7538 23.8882 28.7538H12.1118C11.1181 28.7538 10.1995 28.2307 9.70057 27.3809L3.83184 17.3846C3.32916 16.5284 3.32917 15.4714 3.83186 14.6152L9.70055 4.6194C10.1995 3.76954 11.1181 3.24654 12.1117 3.24654Z" fill="black"/>
<path d="M28.3961 3.4153L28.6117 3.28872V3.28872L28.3961 3.4153ZM7.60385 3.4153L7.38827 3.28872L7.60385 3.4153ZM1.73517 13.4111L1.95076 13.5376L1.73517 13.4111ZM1.73512 18.5887L1.95071 18.4621L1.73512 18.5887ZM7.60386 28.5849L7.38826 28.7115L7.60386 28.5849ZM28.3961 28.5849L28.1806 28.4584L28.3961 28.5849ZM34.2649 18.5887L34.0493 18.4621L34.2649 18.5887ZM34.2648 13.4111L34.4804 13.2845L34.2648 13.4111ZM26.2995 4.6194L26.515 4.49283V4.49283L26.2995 4.6194ZM32.1681 14.6152L32.3837 14.4886L32.1681 14.6152ZM32.1682 17.3846L32.3838 17.5112L32.1682 17.3846ZM26.2994 27.3809L26.515 27.5074L26.2994 27.3809ZM9.70057 27.3809L9.91616 27.2543L9.70057 27.3809ZM3.83184 17.3846L4.04743 17.258L3.83184 17.3846ZM3.83186 14.6152L3.61627 14.4886L3.83186 14.6152ZM9.70055 4.6194L9.48496 4.49283V4.49283L9.70055 4.6194ZM23.8883 1.09863C25.6582 1.09863 27.2931 2.03025 28.1806 3.54187L28.6117 3.28872C27.6335 1.62261 25.8337 0.598633 23.8883 0.598633V1.09863ZM12.1117 1.09863H23.8883V0.598633H12.1117V1.09863ZM7.81944 3.54187C8.70694 2.03025 10.3418 1.09863 12.1117 1.09863V0.598633C10.1663 0.598633 8.36646 1.62261 7.38827 3.28872L7.81944 3.54187ZM1.95076 13.5376L7.81944 3.54187L7.38827 3.28872L1.51958 13.2845L1.95076 13.5376ZM1.95071 18.4621C1.05682 16.9395 1.05684 15.0602 1.95076 13.5376L1.51958 13.2845C0.533896 14.9634 0.533877 17.0364 1.51953 18.7152L1.95071 18.4621ZM7.81945 28.4584L1.95071 18.4621L1.51953 18.7152L7.38826 28.7115L7.81945 28.4584ZM12.1118 30.9017C10.3418 30.9017 8.70694 29.97 7.81945 28.4584L7.38826 28.7115C8.36645 30.3776 10.1663 31.4017 12.1118 31.4017V30.9017ZM23.8882 30.9017H12.1118V31.4017H23.8882V30.9017ZM28.1806 28.4584C27.2931 29.97 25.6582 30.9017 23.8882 30.9017V31.4017C25.8337 31.4017 27.6336 30.3776 28.6117 28.7115L28.1806 28.4584ZM34.0493 18.4621L28.1806 28.4584L28.6117 28.7115L34.4805 18.7152L34.0493 18.4621ZM34.0492 13.5376C34.9432 15.0602 34.9432 16.9395 34.0493 18.4621L34.4805 18.7152C35.4661 17.0364 35.4661 14.9634 34.4804 13.2845L34.0492 13.5376ZM28.1806 3.54187L34.0492 13.5376L34.4804 13.2845L28.6117 3.28872L28.1806 3.54187ZM23.8883 2.99654H12.1117V3.49654H23.8883V2.99654ZM26.515 4.49283C25.9707 3.56573 24.9697 2.99654 23.8883 2.99654V3.49654C24.7942 3.49654 25.6303 3.97336 26.0839 4.74598L26.515 4.49283ZM32.3837 14.4886L26.515 4.49283L26.0839 4.74598L31.9526 14.7418L32.3837 14.4886ZM32.3838 17.5112C32.9323 16.5768 32.9323 15.4229 32.3837 14.4886L31.9526 14.7418C32.4094 15.5198 32.4094 16.48 31.9526 17.258L32.3838 17.5112ZM26.515 27.5074L32.3838 17.5112L31.9526 17.258L26.0838 27.2543L26.515 27.5074ZM23.8882 29.0038C24.9697 29.0038 25.9707 28.4346 26.515 27.5074L26.0838 27.2543C25.6302 28.0269 24.7941 28.5038 23.8882 28.5038V29.0038ZM12.1118 29.0038H23.8882V28.5038H12.1118V29.0038ZM9.48498 27.5074C10.0293 28.4346 11.0304 29.0038 12.1118 29.0038V28.5038C11.2059 28.5038 10.3698 28.0269 9.91616 27.2543L9.48498 27.5074ZM3.61624 17.5112L9.48498 27.5074L9.91616 27.2543L4.04743 17.258L3.61624 17.5112ZM3.61627 14.4886C3.0677 15.4229 3.06769 16.5768 3.61624 17.5112L4.04743 17.258C3.59064 16.48 3.59064 15.5198 4.04745 14.7418L3.61627 14.4886ZM9.48496 4.49283L3.61627 14.4886L4.04745 14.7418L9.91613 4.74598L9.48496 4.49283ZM12.1117 2.99654C11.0303 2.99654 10.0293 3.56573 9.48496 4.49283L9.91613 4.74598C10.3698 3.97336 11.2058 3.49654 12.1117 3.49654V2.99654Z" fill="#222222"/>
</g>
<g id="Oval 25">
<path fill-rule="evenodd" clip-rule="evenodd" d="M11.7818 15.8264C11.7818 19.1272 14.4874 21.8031 17.8249 21.8031C21.1624 21.8031 23.868 19.1272 23.868 15.8264C23.868 12.5255 21.1624 9.84961 17.8249 9.84961C14.4874 9.84961 11.7818 12.5255 11.7818 15.8264ZM21.4435 15.8264C21.4435 17.8029 19.8234 19.4052 17.8249 19.4052C15.8264 19.4052 14.2063 17.8029 14.2063 15.8264C14.2063 13.8498 15.8264 12.2475 17.8249 12.2475C19.8234 12.2475 21.4435 13.8498 21.4435 15.8264Z" fill="#266EFF"/>
<path d="M17.8249 21.5531C14.6228 21.5531 12.0318 18.9866 12.0318 15.8264H11.5318C11.5318 19.2679 14.3519 22.0531 17.8249 22.0531V21.5531ZM23.618 15.8264C23.618 18.9866 21.027 21.5531 17.8249 21.5531V22.0531C21.2979 22.0531 24.118 19.2679 24.118 15.8264H23.618ZM17.8249 10.0996C21.027 10.0996 23.618 12.6662 23.618 15.8264H24.118C24.118 12.3848 21.2979 9.59961 17.8249 9.59961V10.0996ZM12.0318 15.8264C12.0318 12.6662 14.6228 10.0996 17.8249 10.0996V9.59961C14.3519 9.59961 11.5318 12.3848 11.5318 15.8264H12.0318ZM17.8249 19.6552C19.9589 19.6552 21.6935 17.9436 21.6935 15.8264H21.1935C21.1935 17.6622 19.6879 19.1552 17.8249 19.1552V19.6552ZM13.9563 15.8264C13.9563 17.9436 15.6909 19.6552 17.8249 19.6552V19.1552C15.9619 19.1552 14.4563 17.6622 14.4563 15.8264H13.9563ZM17.8249 11.9975C15.6909 11.9975 13.9563 13.7092 13.9563 15.8264H14.4563C14.4563 13.9905 15.9619 12.4975 17.8249 12.4975V11.9975ZM21.6935 15.8264C21.6935 13.7092 19.9589 11.9975 17.8249 11.9975V12.4975C19.6879 12.4975 21.1935 13.9905 21.1935 15.8264H21.6935Z" fill="#266EFF"/>
</g>
</g>
</svg>
