<svg width="30" height="34" viewBox="0 0 30 34" fill="none" xmlns="http://www.w3.org/2000/svg">
<g id="icon_&#231;&#148;&#168;&#230;&#136;&#183;&#229;&#141;&#143;&#232;&#174;&#174;">
<g id="&#229;&#155;&#190;&#230;&#160;&#135; / M / &#231;&#155;&#174;&#229;&#189;&#149;">
<path fill-rule="evenodd" clip-rule="evenodd" d="M24.1229 1.24219H5.87724C2.88239 1.24219 0.45459 3.66999 0.45459 6.66484V27.3347C0.45459 30.3295 2.88239 32.7573 5.87724 32.7573H24.1229C27.1177 32.7573 29.5455 30.3295 29.5455 27.3347V6.66484C29.5455 3.66999 27.1177 1.24219 24.1229 1.24219ZM2.87883 6.66483C2.87883 5.00886 4.22126 3.66643 5.87724 3.66643H24.1229C25.7788 3.66643 27.1213 5.00886 27.1213 6.66483V27.3347C27.1213 28.9907 25.7788 30.3331 24.1229 30.3331H5.87724C4.22126 30.3331 2.87883 28.9907 2.87883 27.3347V6.66483Z" fill="#222222"/>
<path d="M5.87724 1.49219H24.1229V0.992188H5.87724V1.49219ZM0.70459 6.66484C0.70459 3.80806 3.02046 1.49219 5.87724 1.49219V0.992188C2.74432 0.992188 0.20459 3.53192 0.20459 6.66484H0.70459ZM0.70459 27.3347V6.66484H0.20459V27.3347H0.70459ZM5.87724 32.5073C3.02046 32.5073 0.70459 30.1915 0.70459 27.3347H0.20459C0.20459 30.4676 2.74432 33.0073 5.87724 33.0073V32.5073ZM24.1229 32.5073H5.87724V33.0073H24.1229V32.5073ZM29.2955 27.3347C29.2955 30.1915 26.9796 32.5073 24.1229 32.5073V33.0073C27.2558 33.0073 29.7955 30.4676 29.7955 27.3347H29.2955ZM29.2955 6.66484V27.3347H29.7955V6.66484H29.2955ZM24.1229 1.49219C26.9796 1.49219 29.2955 3.80806 29.2955 6.66484H29.7955C29.7955 3.53192 27.2558 0.992188 24.1229 0.992188V1.49219ZM5.87724 3.41643C4.08319 3.41643 2.62883 4.87079 2.62883 6.66483H3.12883C3.12883 5.14693 4.35934 3.91643 5.87724 3.91643V3.41643ZM24.1229 3.41643H5.87724V3.91643H24.1229V3.41643ZM27.3713 6.66483C27.3713 4.87079 25.9169 3.41643 24.1229 3.41643V3.91643C25.6408 3.91643 26.8713 5.14693 26.8713 6.66483H27.3713ZM27.3713 27.3347V6.66483H26.8713V27.3347H27.3713ZM24.1229 30.5831C25.9169 30.5831 27.3713 29.1287 27.3713 27.3347H26.8713C26.8713 28.8526 25.6408 30.0831 24.1229 30.0831V30.5831ZM5.87724 30.5831H24.1229V30.0831H5.87724V30.5831ZM2.62883 27.3347C2.62883 29.1287 4.08319 30.5831 5.87724 30.5831V30.0831C4.35934 30.0831 3.12883 28.8526 3.12883 27.3347H2.62883ZM2.62883 6.66483V27.3347H3.12883V6.66483H2.62883Z" fill="#222222"/>
</g>
<g id="Union">
<path fill-rule="evenodd" clip-rule="evenodd" d="M8.42916 11.893C7.75973 11.893 7.21704 11.3503 7.21704 10.6809C7.21704 10.0114 7.75973 9.46875 8.42916 9.46875H21.2268C21.8962 9.46875 22.4389 10.0114 22.4389 10.6809C22.4389 11.3503 21.8962 11.893 21.2268 11.893H8.42916ZM8.42916 18.1459C7.75973 18.1459 7.21704 17.6032 7.21704 16.9338C7.21704 16.2644 7.75973 15.7217 8.42916 15.7217H21.2268C21.8962 15.7217 22.4389 16.2644 22.4389 16.9338C22.4389 17.6032 21.8962 18.1459 21.2268 18.1459H8.42916ZM7.1167 23.1867C7.1167 23.8562 7.65938 24.3989 8.32882 24.3989H16.1224C16.7919 24.3989 17.3345 23.8562 17.3345 23.1867C17.3345 22.5173 16.7919 21.9746 16.1224 21.9746H8.32882C7.65938 21.9746 7.1167 22.5173 7.1167 23.1867Z" fill="#266EFF"/>
<path d="M6.96704 10.6809C6.96704 11.4884 7.62165 12.143 8.42916 12.143V11.643C7.8978 11.643 7.46704 11.2122 7.46704 10.6809H6.96704ZM8.42916 9.21875C7.62165 9.21875 6.96704 9.87336 6.96704 10.6809H7.46704C7.46704 10.1495 7.8978 9.71875 8.42916 9.71875V9.21875ZM21.2268 9.21875H8.42916V9.71875H21.2268V9.21875ZM22.6889 10.6809C22.6889 9.87336 22.0343 9.21875 21.2268 9.21875V9.71875C21.7581 9.71875 22.1889 10.1495 22.1889 10.6809H22.6889ZM21.2268 12.143C22.0343 12.143 22.6889 11.4884 22.6889 10.6809H22.1889C22.1889 11.2122 21.7581 11.643 21.2268 11.643V12.143ZM8.42916 12.143H21.2268V11.643H8.42916V12.143ZM6.96704 16.9338C6.96704 17.7413 7.62165 18.3959 8.42916 18.3959V17.8959C7.8978 17.8959 7.46704 17.4652 7.46704 16.9338H6.96704ZM8.42916 15.4717C7.62165 15.4717 6.96704 16.1263 6.96704 16.9338H7.46704C7.46704 16.4024 7.8978 15.9717 8.42916 15.9717V15.4717ZM21.2268 15.4717H8.42916V15.9717H21.2268V15.4717ZM22.6889 16.9338C22.6889 16.1263 22.0343 15.4717 21.2268 15.4717V15.9717C21.7581 15.9717 22.1889 16.4024 22.1889 16.9338H22.6889ZM21.2268 18.3959C22.0343 18.3959 22.6889 17.7413 22.6889 16.9338H22.1889C22.1889 17.4652 21.7581 17.8959 21.2268 17.8959V18.3959ZM8.42916 18.3959H21.2268V17.8959H8.42916V18.3959ZM8.32882 24.1489C7.79746 24.1489 7.3667 23.7181 7.3667 23.1867H6.8667C6.8667 23.9942 7.52131 24.6489 8.32882 24.6489V24.1489ZM16.1224 24.1489H8.32882V24.6489H16.1224V24.1489ZM17.0845 23.1867C17.0845 23.7181 16.6538 24.1489 16.1224 24.1489V24.6489C16.9299 24.6489 17.5845 23.9942 17.5845 23.1867H17.0845ZM16.1224 22.2246C16.6538 22.2246 17.0845 22.6554 17.0845 23.1867H17.5845C17.5845 22.3792 16.9299 21.7246 16.1224 21.7246V22.2246ZM8.32882 22.2246H16.1224V21.7246H8.32882V22.2246ZM7.3667 23.1867C7.3667 22.6554 7.79746 22.2246 8.32882 22.2246V21.7246C7.52131 21.7246 6.8667 22.3792 6.8667 23.1867H7.3667Z" fill="#266EFF"/>
</g>
</g>
</svg>
